<svg width="2810" height="517" viewBox="0 0 2810 517" fill="none" xmlns="http://www.w3.org/2000/svg">
<path d="M685 413.8V133.8H734.2L836.2 299.8L807.4 299.4L910.6 133.8H957.4V413.8H905.8V308.6C905.8 284.6 906.333 263 907.4 243.8C908.733 224.6 910.867 205.533 913.8 186.6L920.2 203.8L833.4 337.8H807L723 205L728.6 186.6C731.533 204.467 733.533 222.867 734.6 241.8C735.933 260.467 736.6 282.733 736.6 308.6V413.8H685Z" fill="white"/>
<path d="M1103.46 417.8C1086.12 417.8 1070.39 413 1056.26 403.4C1042.12 393.8 1030.79 380.733 1022.26 364.2C1013.72 347.667 1009.46 328.867 1009.46 307.8C1009.46 286.733 1013.72 267.933 1022.26 251.4C1030.79 234.867 1042.39 221.933 1057.06 212.6C1071.72 203.267 1088.26 198.6 1106.66 198.6C1117.32 198.6 1127.06 200.2 1135.86 203.4C1144.66 206.333 1152.39 210.6 1159.06 216.2C1165.72 221.8 1171.19 228.2 1175.46 235.4C1179.99 242.6 1183.06 250.333 1184.66 258.6L1173.86 255.8V203H1223.46V413.8H1173.46V363.4L1185.06 361.4C1183.19 368.6 1179.72 375.667 1174.66 382.6C1169.86 389.267 1163.72 395.267 1156.26 400.6C1149.06 405.667 1140.92 409.8 1131.86 413C1123.06 416.2 1113.59 417.8 1103.46 417.8ZM1117.06 374.2C1128.52 374.2 1138.66 371.4 1147.46 365.8C1156.26 360.2 1163.06 352.467 1167.86 342.6C1172.92 332.467 1175.46 320.867 1175.46 307.8C1175.46 295 1172.92 283.667 1167.86 273.8C1163.06 263.933 1156.26 256.2 1147.46 250.6C1138.66 245 1128.52 242.2 1117.06 242.2C1105.59 242.2 1095.46 245 1086.66 250.6C1078.12 256.2 1071.46 263.933 1066.66 273.8C1061.86 283.667 1059.46 295 1059.46 307.8C1059.46 320.867 1061.86 332.467 1066.66 342.6C1071.46 352.467 1078.12 360.2 1086.66 365.8C1095.46 371.4 1105.59 374.2 1117.06 374.2Z" fill="white"/>
<path d="M1286.1 413.8V203H1335.3V413.8H1286.1ZM1310.1 158.2C1300.23 158.2 1292.5 155.8 1286.9 151C1281.56 145.933 1278.9 138.867 1278.9 129.8C1278.9 121.267 1281.7 114.333 1287.3 109C1292.9 103.667 1300.5 101 1310.1 101C1320.23 101 1327.96 103.533 1333.3 108.6C1338.9 113.4 1341.7 120.467 1341.7 129.8C1341.7 138.067 1338.9 144.867 1333.3 150.2C1327.7 155.533 1319.96 158.2 1310.1 158.2Z" fill="white"/>
<path d="M1397.68 413.8V203H1445.68L1446.48 246.2L1437.28 251C1439.95 241.4 1445.15 232.733 1452.88 225C1460.62 217 1469.82 210.6 1480.48 205.8C1491.15 201 1502.08 198.6 1513.28 198.6C1529.28 198.6 1542.62 201.8 1553.28 208.2C1564.22 214.6 1572.35 224.2 1577.68 237C1583.28 249.8 1586.08 265.8 1586.08 285V413.8H1536.88V288.6C1536.88 277.933 1535.42 269.133 1532.48 262.2C1529.55 255 1525.02 249.8 1518.88 246.6C1512.75 243.133 1505.28 241.533 1496.48 241.8C1489.28 241.8 1482.62 243 1476.48 245.4C1470.62 247.533 1465.42 250.733 1460.88 255C1456.62 259 1453.15 263.667 1450.48 269C1448.08 274.333 1446.88 280.2 1446.88 286.6V413.8H1422.48C1417.68 413.8 1413.15 413.8 1408.88 413.8C1404.88 413.8 1401.15 413.8 1397.68 413.8Z" fill="white"/>
<path d="M1664.23 413.8V149.4H1713.43V413.8H1664.23ZM1622.63 248.6V203H1759.43V248.6H1622.63Z" fill="white"/>
<path d="M1893.75 417.8C1871.62 417.8 1852.02 413.133 1834.95 403.8C1818.15 394.467 1804.95 381.8 1795.35 365.8C1786.02 349.533 1781.35 331 1781.35 310.2C1781.35 293.667 1784.02 278.6 1789.35 265C1794.68 251.4 1802.02 239.667 1811.35 229.8C1820.95 219.667 1832.28 211.933 1845.35 206.6C1858.68 201 1873.22 198.2 1888.95 198.2C1902.82 198.2 1915.75 200.867 1927.75 206.2C1939.75 211.533 1950.15 218.867 1958.95 228.2C1967.75 237.267 1974.42 248.2 1978.95 261C1983.75 273.533 1986.02 287.267 1985.75 302.2L1985.35 319.4H1814.55L1805.35 285.8H1944.15L1937.75 292.6V283.8C1936.95 275.533 1934.28 268.333 1929.75 262.2C1925.22 255.8 1919.35 250.867 1912.15 247.4C1905.22 243.667 1897.48 241.8 1888.95 241.8C1875.88 241.8 1864.82 244.333 1855.75 249.4C1846.95 254.467 1840.28 261.8 1835.75 271.4C1831.22 280.733 1828.95 292.467 1828.95 306.6C1828.95 320.2 1831.75 332.067 1837.35 342.2C1843.22 352.333 1851.35 360.2 1861.75 365.8C1872.42 371.133 1884.82 373.8 1898.95 373.8C1908.82 373.8 1917.88 372.2 1926.15 369C1934.42 365.8 1943.35 360.067 1952.95 351.8L1977.35 385.8C1970.15 392.467 1961.88 398.2 1952.55 403C1943.48 407.533 1933.88 411.133 1923.75 413.8C1913.62 416.467 1903.62 417.8 1893.75 417.8Z" fill="white"/>
<path d="M2164.55 413.8L2104.55 332.6L2093.35 317.4L2006.55 203H2067.35L2138.15 299L2224.15 413.8H2164.55ZM2006.15 413.8L2089.75 301.8L2117.75 335.4L2064.15 413.8H2006.15ZM2138.15 315.4L2111.35 282.2L2159.75 203H2217.75L2138.15 315.4Z" fill="white"/>
<path d="M2350.98 413.8L2460.98 133.8H2514.58L2623.78 413.8H2562.18L2505.78 263C2504.18 258.733 2502.18 253.267 2499.78 246.6C2497.65 239.933 2495.38 232.867 2492.98 225.4C2490.58 217.933 2488.31 210.867 2486.18 204.2C2484.05 197.267 2482.45 191.533 2481.38 187H2492.18C2490.58 192.867 2488.71 199.133 2486.58 205.8C2484.71 212.2 2482.71 218.867 2480.58 225.8C2478.45 232.467 2476.18 239 2473.78 245.4C2471.38 251.8 2469.11 258.067 2466.98 264.2L2410.58 413.8H2350.98ZM2402.18 355L2421.78 307H2550.18L2570.18 355H2402.18Z" fill="white" fill-opacity="0.75"/>
<path d="M2655.9 413.8V362.2H2702.7V185.4H2655.9V133.8H2809.5V185.4H2762.7V362.2H2809.5V413.8H2655.9Z" fill="white" fill-opacity="0.75"/>
<path opacity="0.927" d="M225.768 1.5L225.999 1.63379C290.392 38.738 354.716 76.0432 418.971 113.55L446.505 129.637L446.983 129.917L447 130.471C447.834 158.833 447.667 187.191 446.499 215.541L446.477 216.082L446.012 216.359C433.845 223.609 421.678 230.859 409.512 238.109C397.831 245.07 386.15 252.029 374.47 258.989C386.147 265.788 397.825 272.587 409.503 279.386C421.67 286.469 433.836 293.552 446.003 300.636L446.477 300.911L446.499 301.459C447.667 329.809 447.834 358.167 447 386.529L446.983 387.066L446.527 387.35C429.262 398.068 411.749 408.41 393.989 418.372L393.197 418.816L392.679 418.071C389.578 413.613 386.883 408.895 384.592 403.918L384.214 403.099L384.991 402.639C392.325 398.305 399.658 393.972 406.991 389.639C414.174 385.395 421.355 381.15 428.538 376.905C429.793 358.994 429.818 341.083 428.612 323.172C380.497 351.111 332.462 379.176 284.507 407.362L283.075 408.203L283.001 406.545C281.282 368.195 281.116 329.835 282.501 291.464L282.521 290.912L282.998 290.635C331.639 262.424 380.15 234.016 428.532 205.41C429.626 187.407 429.803 169.337 429.067 151.198C396.879 169.92 364.691 188.642 332.503 207.364C300 226.269 267.497 245.173 234.994 264.078C234.175 338.979 234.334 413.878 235.475 488.774C280.403 462.603 325.413 436.556 370.502 410.633L371.356 410.142L371.859 410.989C374.503 415.441 377.013 419.958 379.388 424.54L379.652 425.05L379.346 425.534C378.494 426.881 377.388 427.987 376.036 428.845L375.993 428.87C325.942 457.222 276.281 486.051 227.012 515.359L226.775 515.5H222.229L221.994 515.362C198.725 501.723 175.391 488.056 151.995 474.363L151.513 474.081L150.5 429.522C150.18 415.424 149.859 401.325 149.538 387.227C125.071 401.648 100.387 415.699 75.4814 429.377L74.9912 429.646L74.5059 429.369C50.3518 415.625 26.3454 401.621 2.4873 387.358L2.00488 387.07L2 386.508C1.33326 301.17 1.33326 215.83 2 130.492L2.00488 129.932L2.48535 129.643C26.453 115.242 50.6289 101.237 75.0127 87.627L75.499 87.3555L75.9863 87.626C100.53 101.288 124.874 115.33 149.02 129.75C149.179 115.829 149.34 101.909 149.5 87.9883C149.667 73.4884 149.834 58.9882 150 44.4883L150.007 43.9238L150.493 43.6377C174.136 29.7395 197.633 15.7413 220.983 1.64355L221.222 1.5H225.768ZM19.4932 151.225C19.1732 226.459 19.5056 301.691 20.4922 376.92C35.7485 385.749 50.9292 394.694 66.0342 403.755C66.5064 380.341 66.6625 356.925 66.5 333.507L66.4932 332.5H84.5068L84.5 333.507C84.337 356.934 84.4931 380.36 84.9658 403.784C106.566 391.278 128.088 378.654 149.532 365.911C150.82 344.306 150.821 322.702 149.533 301.097C138.689 294.853 127.845 288.61 117.001 282.366C106.473 276.305 95.9444 270.243 85.416 264.181C84.4829 282.603 84.1769 301.037 84.5 319.482L84.5176 320.5H66.5117L66.5 319.512C66.1667 291.155 66.5006 262.805 67.501 234.465L67.5596 232.796L69.0029 233.636L167.003 290.636L167.492 290.92L167.5 291.485C168.33 348.629 168.829 405.778 168.998 462.928C177.002 467.665 185.006 472.403 193.01 477.14C200.679 481.678 208.348 486.217 216.017 490.756C216.826 415.195 216.658 339.638 215.508 264.082C150.143 226.451 84.805 188.832 19.4932 151.225ZM354.515 269.65C336.319 280.312 318.142 291.12 299.982 302.075C299.188 326.991 299.338 351.9 300.428 376.804C320.451 365.164 340.474 353.525 360.497 341.886C380.501 330.258 400.504 318.629 420.508 307.001C398.611 294.29 376.614 281.839 354.515 269.65ZM223.515 21.6602C208.326 30.9012 192.981 40.0152 177.48 49.0049C197.158 60.6165 216.989 71.9895 236.977 83.1201C239.82 84.5411 242.253 86.4546 244.267 88.8574L244.701 89.376L244.382 89.9727C241.933 94.5441 239.245 98.9116 236.318 103.075L235.799 103.814L235.011 103.372C212.425 90.6939 190.073 77.652 167.958 64.249C167.339 89.475 167.348 114.701 167.986 139.927C186.827 151.309 205.827 162.447 224.986 173.341C246.413 160.446 267.919 147.671 289.501 135.014C276.421 127.58 263.418 120.029 250.49 112.36L250.294 112.244L250.168 112.055C249.747 111.424 249.5 110.734 249.5 110C249.5 109.281 249.738 108.605 250.143 107.985L256.21 97.873L256.304 97.7822C256.943 97.1624 257.683 96.7418 258.521 96.6221C259.359 96.5023 260.185 96.6994 260.97 97.1172L260.983 97.124L260.996 97.1318C282.167 109.217 303.174 121.553 324.017 134.144L325.436 135.001L324.017 135.856C293.191 154.436 262.201 172.763 231.046 190.839C228.43 192.855 225.498 193.584 222.314 192.982L222.143 192.95L221.992 192.861C173.448 164.272 124.617 136.2 75.499 108.646C59.8741 117.42 44.2149 126.208 28.5215 135.012C94.0245 172.806 159.517 210.584 225 248.346C290.066 210.944 354.907 173.163 419.522 135.005C354.32 96.9647 288.984 59.1823 223.515 21.6602Z" fill="white" stroke="white" stroke-width="2"/>
<mask id="mask0_1747_921" style="mask-type:alpha" maskUnits="userSpaceOnUse" x="1" y="0" width="449" height="517">
<path opacity="0.927" d="M226.268 1.5L226.499 1.63379C290.892 38.738 355.216 76.0432 419.471 113.55L447.005 129.637L447.483 129.917L447.5 130.471C448.334 158.833 448.167 187.191 446.999 215.541L446.977 216.082L446.512 216.359C434.345 223.609 422.178 230.859 410.012 238.109C398.331 245.07 386.65 252.029 374.97 258.989C386.647 265.788 398.325 272.587 410.003 279.386C422.17 286.469 434.336 293.552 446.503 300.636L446.977 300.911L446.999 301.459C448.167 329.809 448.334 358.167 447.5 386.529L447.483 387.066L447.027 387.35C429.762 398.068 412.249 408.41 394.489 418.372L393.697 418.816L393.179 418.071C390.078 413.613 387.383 408.895 385.092 403.918L384.714 403.099L385.491 402.639C392.825 398.305 400.158 393.972 407.491 389.639C414.674 385.395 421.855 381.15 429.038 376.905C430.293 358.994 430.318 341.083 429.112 323.172C380.997 351.111 332.962 379.176 285.007 407.362L283.575 408.203L283.501 406.545C281.782 368.195 281.616 329.835 283.001 291.464L283.021 290.912L283.498 290.635C332.139 262.424 380.65 234.016 429.032 205.41C430.126 187.407 430.303 169.337 429.567 151.198C397.379 169.92 365.191 188.642 333.003 207.364C300.5 226.269 267.997 245.173 235.494 264.078C234.675 338.979 234.834 413.878 235.975 488.774C280.903 462.603 325.913 436.556 371.002 410.633L371.856 410.142L372.359 410.989C375.003 415.441 377.513 419.958 379.888 424.54L380.152 425.05L379.846 425.534C378.994 426.881 377.888 427.987 376.536 428.845L376.493 428.87C326.442 457.222 276.781 486.051 227.512 515.359L227.275 515.5H222.729L222.494 515.362C199.225 501.723 175.891 488.056 152.495 474.363L152.013 474.081L151 429.522C150.68 415.424 150.359 401.325 150.038 387.227C125.571 401.648 100.887 415.699 75.9814 429.377L75.4912 429.646L75.0059 429.369C50.8518 415.625 26.8454 401.621 2.9873 387.358L2.50488 387.07L2.5 386.508C1.83326 301.17 1.83326 215.83 2.5 130.492L2.50488 129.932L2.98535 129.643C26.953 115.242 51.1289 101.237 75.5127 87.627L75.999 87.3555L76.4863 87.626C101.03 101.288 125.374 115.33 149.52 129.75C149.679 115.829 149.84 101.909 150 87.9883C150.167 73.4884 150.334 58.9882 150.5 44.4883L150.507 43.9238L150.993 43.6377C174.636 29.7395 198.133 15.7413 221.483 1.64355L221.722 1.5H226.268ZM19.9932 151.225C19.6732 226.459 20.0056 301.691 20.9922 376.92C36.2485 385.749 51.4292 394.694 66.5342 403.755C67.0064 380.341 67.1625 356.925 67 333.507L66.9932 332.5H85.0068L85 333.507C84.837 356.934 84.9931 380.36 85.4658 403.784C107.066 391.278 128.588 378.654 150.032 365.911C151.32 344.306 151.321 322.702 150.033 301.097C139.189 294.853 128.345 288.61 117.501 282.366C106.973 276.305 96.4444 270.243 85.916 264.181C84.9829 282.603 84.6769 301.037 85 319.482L85.0176 320.5H67.0117L67 319.512C66.6667 291.155 67.0006 262.805 68.001 234.465L68.0596 232.796L69.5029 233.636L167.503 290.636L167.992 290.92L168 291.485C168.83 348.629 169.329 405.778 169.498 462.928C177.502 467.665 185.506 472.403 193.51 477.14C201.179 481.678 208.848 486.217 216.517 490.756C217.326 415.195 217.158 339.638 216.008 264.082C150.643 226.451 85.305 188.832 19.9932 151.225ZM355.015 269.65C336.819 280.312 318.642 291.12 300.482 302.075C299.688 326.991 299.838 351.9 300.928 376.804C320.951 365.164 340.974 353.525 360.997 341.886C381.001 330.258 401.004 318.629 421.008 307.001C399.111 294.29 377.114 281.839 355.015 269.65ZM224.015 21.6602C208.826 30.9012 193.481 40.0152 177.98 49.0049C197.658 60.6165 217.489 71.9895 237.477 83.1201C240.32 84.5411 242.753 86.4546 244.767 88.8574L245.201 89.376L244.882 89.9727C242.433 94.5441 239.745 98.9116 236.818 103.075L236.299 103.814L235.511 103.372C212.925 90.6939 190.573 77.652 168.458 64.249C167.839 89.475 167.848 114.701 168.486 139.927C187.327 151.309 206.327 162.447 225.486 173.341C246.913 160.446 268.419 147.671 290.001 135.014C276.921 127.58 263.918 120.029 250.99 112.36L250.794 112.244L250.668 112.055C250.247 111.424 250 110.734 250 110C250 109.281 250.238 108.605 250.643 107.985L256.71 97.873L256.804 97.7822C257.443 97.1624 258.183 96.7418 259.021 96.6221C259.859 96.5023 260.685 96.6994 261.47 97.1172L261.483 97.124L261.496 97.1318C282.667 109.217 303.674 121.553 324.517 134.144L325.936 135.001L324.517 135.856C293.691 154.436 262.701 172.763 231.546 190.839C228.93 192.855 225.998 193.584 222.814 192.982L222.643 192.95L222.492 192.861C173.948 164.272 125.117 136.2 75.999 108.646C60.3741 117.42 44.7149 126.208 29.0215 135.012C94.5245 172.806 160.017 210.584 225.5 248.346C290.566 210.944 355.407 173.163 420.022 135.005C354.82 96.9647 289.484 59.1823 224.015 21.6602Z" fill="black" stroke="black" stroke-width="2"/>
</mask>
<g mask="url(#mask0_1747_921)">
<path d="M227 174L138 124L161 -28L449 -18L513 380L237 521V266L227 249V174Z" fill="#7E7E7E"/>
<path d="M449.429 -18.4854L513.552 380.279L236.5 521.817V266.136L226.569 249.254L226.5 249.136V174.292L137.454 124.267L160.572 -28.5156L449.429 -18.4854ZM138.545 123.733L227.245 173.564L227.5 173.707V248.863L237.431 265.746L237.5 265.864V520.183L512.447 379.72L448.57 -17.5146L161.427 -27.4854L138.545 123.733Z" fill="black"/>
</g>
</svg>
