<svg width="2810" height="516" viewBox="0 0 2810 516" fill="none" xmlns="http://www.w3.org/2000/svg">
<path d="M685 413.3V133.3H734.2L836.2 299.3L807.4 298.9L910.6 133.3H957.4V413.3H905.8V308.1C905.8 284.1 906.333 262.5 907.4 243.3C908.733 224.1 910.867 205.033 913.8 186.1L920.2 203.3L833.4 337.3H807L723 204.5L728.6 186.1C731.533 203.967 733.533 222.367 734.6 241.3C735.933 259.967 736.6 282.233 736.6 308.1V413.3H685Z" fill="#151515"/>
<path d="M1103.46 417.3C1086.12 417.3 1070.39 412.5 1056.26 402.9C1042.12 393.3 1030.79 380.233 1022.26 363.7C1013.72 347.167 1009.46 328.367 1009.46 307.3C1009.46 286.233 1013.72 267.433 1022.26 250.9C1030.79 234.367 1042.39 221.433 1057.06 212.1C1071.72 202.767 1088.26 198.1 1106.66 198.1C1117.32 198.1 1127.06 199.7 1135.86 202.9C1144.66 205.833 1152.39 210.1 1159.06 215.7C1165.72 221.3 1171.19 227.7 1175.46 234.9C1179.99 242.1 1183.06 249.833 1184.66 258.1L1173.86 255.3V202.5H1223.46V413.3H1173.46V362.9L1185.06 360.9C1183.19 368.1 1179.72 375.167 1174.66 382.1C1169.86 388.767 1163.72 394.767 1156.26 400.1C1149.06 405.167 1140.92 409.3 1131.86 412.5C1123.06 415.7 1113.59 417.3 1103.46 417.3ZM1117.06 373.7C1128.52 373.7 1138.66 370.9 1147.46 365.3C1156.26 359.7 1163.06 351.967 1167.86 342.1C1172.92 331.967 1175.46 320.367 1175.46 307.3C1175.46 294.5 1172.92 283.167 1167.86 273.3C1163.06 263.433 1156.26 255.7 1147.46 250.1C1138.66 244.5 1128.52 241.7 1117.06 241.7C1105.59 241.7 1095.46 244.5 1086.66 250.1C1078.12 255.7 1071.46 263.433 1066.66 273.3C1061.86 283.167 1059.46 294.5 1059.46 307.3C1059.46 320.367 1061.86 331.967 1066.66 342.1C1071.46 351.967 1078.12 359.7 1086.66 365.3C1095.46 370.9 1105.59 373.7 1117.06 373.7Z" fill="#151515"/>
<path d="M1286.1 413.3V202.5H1335.3V413.3H1286.1ZM1310.1 157.7C1300.23 157.7 1292.5 155.3 1286.9 150.5C1281.56 145.433 1278.9 138.367 1278.9 129.3C1278.9 120.767 1281.7 113.833 1287.3 108.5C1292.9 103.167 1300.5 100.5 1310.1 100.5C1320.23 100.5 1327.96 103.033 1333.3 108.1C1338.9 112.9 1341.7 119.967 1341.7 129.3C1341.7 137.567 1338.9 144.367 1333.3 149.7C1327.7 155.033 1319.96 157.7 1310.1 157.7Z" fill="#151515"/>
<path d="M1397.68 413.3V202.5H1445.68L1446.48 245.7L1437.28 250.5C1439.95 240.9 1445.15 232.233 1452.88 224.5C1460.62 216.5 1469.82 210.1 1480.48 205.3C1491.15 200.5 1502.08 198.1 1513.28 198.1C1529.28 198.1 1542.62 201.3 1553.28 207.7C1564.22 214.1 1572.35 223.7 1577.68 236.5C1583.28 249.3 1586.08 265.3 1586.08 284.5V413.3H1536.88V288.1C1536.88 277.433 1535.42 268.633 1532.48 261.7C1529.55 254.5 1525.02 249.3 1518.88 246.1C1512.75 242.633 1505.28 241.033 1496.48 241.3C1489.28 241.3 1482.62 242.5 1476.48 244.9C1470.62 247.033 1465.42 250.233 1460.88 254.5C1456.62 258.5 1453.15 263.167 1450.48 268.5C1448.08 273.833 1446.88 279.7 1446.88 286.1V413.3H1422.48C1417.68 413.3 1413.15 413.3 1408.88 413.3C1404.88 413.3 1401.15 413.3 1397.68 413.3Z" fill="#151515"/>
<path d="M1664.23 413.3V148.9H1713.43V413.3H1664.23ZM1622.63 248.1V202.5H1759.43V248.1H1622.63Z" fill="#151515"/>
<path d="M1893.75 417.3C1871.62 417.3 1852.02 412.633 1834.95 403.3C1818.15 393.967 1804.95 381.3 1795.35 365.3C1786.02 349.033 1781.35 330.5 1781.35 309.7C1781.35 293.167 1784.02 278.1 1789.35 264.5C1794.68 250.9 1802.02 239.167 1811.35 229.3C1820.95 219.167 1832.28 211.433 1845.35 206.1C1858.68 200.5 1873.22 197.7 1888.95 197.7C1902.82 197.7 1915.75 200.367 1927.75 205.7C1939.75 211.033 1950.15 218.367 1958.95 227.7C1967.75 236.767 1974.42 247.7 1978.95 260.5C1983.75 273.033 1986.02 286.767 1985.75 301.7L1985.35 318.9H1814.55L1805.35 285.3H1944.15L1937.75 292.1V283.3C1936.95 275.033 1934.28 267.833 1929.75 261.7C1925.22 255.3 1919.35 250.367 1912.15 246.9C1905.22 243.167 1897.48 241.3 1888.95 241.3C1875.88 241.3 1864.82 243.833 1855.75 248.9C1846.95 253.967 1840.28 261.3 1835.75 270.9C1831.22 280.233 1828.95 291.967 1828.95 306.1C1828.95 319.7 1831.75 331.567 1837.35 341.7C1843.22 351.833 1851.35 359.7 1861.75 365.3C1872.42 370.633 1884.82 373.3 1898.95 373.3C1908.82 373.3 1917.88 371.7 1926.15 368.5C1934.42 365.3 1943.35 359.567 1952.95 351.3L1977.35 385.3C1970.15 391.967 1961.88 397.7 1952.55 402.5C1943.48 407.033 1933.88 410.633 1923.75 413.3C1913.62 415.967 1903.62 417.3 1893.75 417.3Z" fill="#151515"/>
<path d="M2164.55 413.3L2104.55 332.1L2093.35 316.9L2006.55 202.5H2067.35L2138.15 298.5L2224.15 413.3H2164.55ZM2006.15 413.3L2089.75 301.3L2117.75 334.9L2064.15 413.3H2006.15ZM2138.15 314.9L2111.35 281.7L2159.75 202.5H2217.75L2138.15 314.9Z" fill="#151515"/>
<path d="M2350.98 413.3L2460.98 133.3H2514.58L2623.78 413.3H2562.18L2505.78 262.5C2504.18 258.233 2502.18 252.767 2499.78 246.1C2497.65 239.433 2495.38 232.367 2492.98 224.9C2490.58 217.433 2488.31 210.367 2486.18 203.7C2484.05 196.767 2482.45 191.033 2481.38 186.5H2492.18C2490.58 192.367 2488.71 198.633 2486.58 205.3C2484.71 211.7 2482.71 218.367 2480.58 225.3C2478.45 231.967 2476.18 238.5 2473.78 244.9C2471.38 251.3 2469.11 257.567 2466.98 263.7L2410.58 413.3H2350.98ZM2402.18 354.5L2421.78 306.5H2550.18L2570.18 354.5H2402.18Z" fill="#252525"/>
<path d="M2655.9 413.3V361.7H2702.7V184.9H2655.9V133.3H2809.5V184.9H2762.7V361.7H2809.5V413.3H2655.9Z" fill="#252525"/>
<path opacity="0.927" d="M225.768 1L225.999 1.13379C290.392 38.238 354.716 75.5432 418.971 113.05L446.505 129.137L446.983 129.417L447 129.971C447.834 158.333 447.667 186.691 446.499 215.041L446.477 215.582L446.012 215.859C433.845 223.109 421.678 230.359 409.512 237.609C397.831 244.57 386.15 251.529 374.47 258.489C386.147 265.288 397.825 272.087 409.503 278.886C421.67 285.969 433.836 293.052 446.003 300.136L446.477 300.411L446.499 300.959C447.667 329.309 447.834 357.667 447 386.029L446.983 386.566L446.527 386.85C429.262 397.568 411.749 407.91 393.989 417.872L393.197 418.316L392.679 417.571C389.578 413.113 386.883 408.395 384.592 403.418L384.214 402.599L384.991 402.139C392.325 397.805 399.658 393.472 406.991 389.139C414.174 384.895 421.355 380.65 428.538 376.405C429.793 358.494 429.818 340.583 428.612 322.672C380.497 350.611 332.462 378.676 284.507 406.862L283.075 407.703L283.001 406.045C281.282 367.695 281.116 329.335 282.501 290.964L282.521 290.412L282.998 290.135C331.639 261.924 380.15 233.516 428.532 204.91C429.626 186.907 429.803 168.837 429.067 150.698C396.879 169.42 364.691 188.142 332.503 206.864C300 225.769 267.497 244.673 234.994 263.578C234.175 338.479 234.334 413.378 235.475 488.274C280.403 462.103 325.413 436.056 370.502 410.133L371.356 409.642L371.859 410.489C374.503 414.941 377.013 419.458 379.388 424.04L379.652 424.55L379.346 425.034C378.494 426.381 377.388 427.487 376.036 428.345L375.993 428.37C325.942 456.722 276.281 485.551 227.012 514.859L226.775 515H222.229L221.994 514.862C198.725 501.223 175.391 487.556 151.995 473.863L151.513 473.581L150.5 429.022C150.18 414.924 149.859 400.825 149.538 386.727C125.071 401.148 100.387 415.199 75.4814 428.877L74.9912 429.146L74.5059 428.869C50.3518 415.125 26.3454 401.121 2.4873 386.858L2.00488 386.57L2 386.008C1.33326 300.67 1.33326 215.33 2 129.992L2.00488 129.432L2.48535 129.143C26.453 114.742 50.6289 100.737 75.0127 87.127L75.499 86.8555L75.9863 87.126C100.53 100.788 124.874 114.83 149.02 129.25C149.179 115.329 149.34 101.409 149.5 87.4883C149.667 72.9884 149.834 58.4882 150 43.9883L150.007 43.4238L150.493 43.1377C174.136 29.2395 197.633 15.2413 220.983 1.14355L221.222 1H225.768ZM19.4932 150.725C19.1732 225.959 19.5056 301.191 20.4922 376.42C35.7485 385.249 50.9292 394.194 66.0342 403.255C66.5064 379.841 66.6625 356.425 66.5 333.007L66.4932 332H84.5068L84.5 333.007C84.337 356.434 84.4931 379.86 84.9658 403.284C106.566 390.778 128.088 378.154 149.532 365.411C150.82 343.806 150.821 322.202 149.533 300.597C138.689 294.353 127.845 288.11 117.001 281.866C106.473 275.805 95.9444 269.743 85.416 263.681C84.4829 282.103 84.1769 300.537 84.5 318.982L84.5176 320H66.5117L66.5 319.012C66.1667 290.655 66.5006 262.305 67.501 233.965L67.5596 232.296L69.0029 233.136L167.003 290.136L167.492 290.42L167.5 290.985C168.33 348.129 168.829 405.278 168.998 462.428C177.002 467.165 185.006 471.903 193.01 476.64C200.679 481.178 208.348 485.717 216.017 490.256C216.826 414.695 216.658 339.138 215.508 263.582C150.143 225.951 84.805 188.332 19.4932 150.725ZM354.515 269.15C336.319 279.812 318.142 290.62 299.982 301.575C299.188 326.491 299.338 351.4 300.428 376.304C320.451 364.664 340.474 353.025 360.497 341.386C380.501 329.758 400.504 318.129 420.508 306.501C398.611 293.79 376.614 281.339 354.515 269.15ZM223.515 21.1602C208.326 30.4012 192.981 39.5152 177.48 48.5049C197.158 60.1165 216.989 71.4895 236.977 82.6201C239.82 84.0411 242.253 85.9546 244.267 88.3574L244.701 88.876L244.382 89.4727C241.933 94.0441 239.245 98.4116 236.318 102.575L235.799 103.314L235.011 102.872C212.425 90.1939 190.073 77.152 167.958 63.749C167.339 88.975 167.348 114.201 167.986 139.427C186.827 150.809 205.827 161.947 224.986 172.841C246.413 159.946 267.919 147.171 289.501 134.514C276.421 127.08 263.418 119.529 250.49 111.86L250.294 111.744L250.168 111.555C249.747 110.924 249.5 110.234 249.5 109.5C249.5 108.781 249.738 108.105 250.143 107.485L256.21 97.373L256.304 97.2822C256.943 96.6624 257.683 96.2418 258.521 96.1221C259.359 96.0023 260.185 96.1994 260.97 96.6172L260.983 96.624L260.996 96.6318C282.167 108.717 303.174 121.053 324.017 133.644L325.436 134.501L324.017 135.356C293.191 153.936 262.201 172.263 231.046 190.339C228.43 192.355 225.498 193.084 222.314 192.482L222.143 192.45L221.992 192.361C173.448 163.772 124.617 135.7 75.499 108.146C59.8741 116.92 44.2149 125.708 28.5215 134.512C94.0245 172.306 159.517 210.084 225 247.846C290.066 210.444 354.907 172.663 419.522 134.505C354.32 96.4647 288.984 58.6823 223.515 21.1602Z" fill="#151515" stroke="#151515" stroke-width="2"/>
<mask id="mask0_1747_922" style="mask-type:alpha" maskUnits="userSpaceOnUse" x="1" y="0" width="449" height="516">
<path opacity="0.927" d="M226.268 1L226.499 1.13379C290.892 38.238 355.216 75.5432 419.471 113.05L447.005 129.137L447.483 129.417L447.5 129.971C448.334 158.333 448.167 186.691 446.999 215.041L446.977 215.582L446.512 215.859C434.345 223.109 422.178 230.359 410.012 237.609C398.331 244.57 386.65 251.529 374.97 258.489C386.647 265.288 398.325 272.087 410.003 278.886C422.17 285.969 434.336 293.052 446.503 300.136L446.977 300.411L446.999 300.959C448.167 329.309 448.334 357.667 447.5 386.029L447.483 386.566L447.027 386.85C429.762 397.568 412.249 407.91 394.489 417.872L393.697 418.316L393.179 417.571C390.078 413.113 387.383 408.395 385.092 403.418L384.714 402.599L385.491 402.139C392.825 397.805 400.158 393.472 407.491 389.139C414.674 384.895 421.855 380.65 429.038 376.405C430.293 358.494 430.318 340.583 429.112 322.672C380.997 350.611 332.962 378.676 285.007 406.862L283.575 407.703L283.501 406.045C281.782 367.695 281.616 329.335 283.001 290.964L283.021 290.412L283.498 290.135C332.139 261.924 380.65 233.516 429.032 204.91C430.126 186.907 430.303 168.837 429.567 150.698C397.379 169.42 365.191 188.142 333.003 206.864C300.5 225.769 267.997 244.673 235.494 263.578C234.675 338.479 234.834 413.378 235.975 488.274C280.903 462.103 325.913 436.056 371.002 410.133L371.856 409.642L372.359 410.489C375.003 414.941 377.513 419.458 379.888 424.04L380.152 424.55L379.846 425.034C378.994 426.381 377.888 427.487 376.536 428.345L376.493 428.37C326.442 456.722 276.781 485.551 227.512 514.859L227.275 515H222.729L222.494 514.862C199.225 501.223 175.891 487.556 152.495 473.863L152.013 473.581L151 429.022C150.68 414.924 150.359 400.825 150.038 386.727C125.571 401.148 100.887 415.199 75.9814 428.877L75.4912 429.146L75.0059 428.869C50.8518 415.125 26.8454 401.121 2.9873 386.858L2.50488 386.57L2.5 386.008C1.83326 300.67 1.83326 215.33 2.5 129.992L2.50488 129.432L2.98535 129.143C26.953 114.742 51.1289 100.737 75.5127 87.127L75.999 86.8555L76.4863 87.126C101.03 100.788 125.374 114.83 149.52 129.25C149.679 115.329 149.84 101.409 150 87.4883C150.167 72.9884 150.334 58.4882 150.5 43.9883L150.507 43.4238L150.993 43.1377C174.636 29.2395 198.133 15.2413 221.483 1.14355L221.722 1H226.268ZM19.9932 150.725C19.6732 225.959 20.0056 301.191 20.9922 376.42C36.2485 385.249 51.4292 394.194 66.5342 403.255C67.0064 379.841 67.1625 356.425 67 333.007L66.9932 332H85.0068L85 333.007C84.837 356.434 84.9931 379.86 85.4658 403.284C107.066 390.778 128.588 378.154 150.032 365.411C151.32 343.806 151.321 322.202 150.033 300.597C139.189 294.353 128.345 288.11 117.501 281.866C106.973 275.805 96.4444 269.743 85.916 263.681C84.9829 282.103 84.6769 300.537 85 318.982L85.0176 320H67.0117L67 319.012C66.6667 290.655 67.0006 262.305 68.001 233.965L68.0596 232.296L69.5029 233.136L167.503 290.136L167.992 290.42L168 290.985C168.83 348.129 169.329 405.278 169.498 462.428C177.502 467.165 185.506 471.903 193.51 476.64C201.179 481.178 208.848 485.717 216.517 490.256C217.326 414.695 217.158 339.138 216.008 263.582C150.643 225.951 85.305 188.332 19.9932 150.725ZM355.015 269.15C336.819 279.812 318.642 290.62 300.482 301.575C299.688 326.491 299.838 351.4 300.928 376.304C320.951 364.664 340.974 353.025 360.997 341.386C381.001 329.758 401.004 318.129 421.008 306.501C399.111 293.79 377.114 281.339 355.015 269.15ZM224.015 21.1602C208.826 30.4012 193.481 39.5152 177.98 48.5049C197.658 60.1165 217.489 71.4895 237.477 82.6201C240.32 84.0411 242.753 85.9546 244.767 88.3574L245.201 88.876L244.882 89.4727C242.433 94.0441 239.745 98.4116 236.818 102.575L236.299 103.314L235.511 102.872C212.925 90.1939 190.573 77.152 168.458 63.749C167.839 88.975 167.848 114.201 168.486 139.427C187.327 150.809 206.327 161.947 225.486 172.841C246.913 159.946 268.419 147.171 290.001 134.514C276.921 127.08 263.918 119.529 250.99 111.86L250.794 111.744L250.668 111.555C250.247 110.924 250 110.234 250 109.5C250 108.781 250.238 108.105 250.643 107.485L256.71 97.373L256.804 97.2822C257.443 96.6624 258.183 96.2418 259.021 96.1221C259.859 96.0023 260.685 96.1994 261.47 96.6172L261.483 96.624L261.496 96.6318C282.667 108.717 303.674 121.053 324.517 133.644L325.936 134.501L324.517 135.356C293.691 153.936 262.701 172.263 231.546 190.339C228.93 192.355 225.998 193.084 222.814 192.482L222.643 192.45L222.492 192.361C173.948 163.772 125.117 135.7 75.999 108.146C60.3741 116.92 44.7149 125.708 29.0215 134.512C94.5245 172.306 160.017 210.084 225.5 247.846C290.566 210.444 355.407 172.663 420.022 134.505C354.82 96.4647 289.484 58.6823 224.015 21.1602Z" fill="black" stroke="black" stroke-width="2"/>
</mask>
<g mask="url(#mask0_1747_922)">
<path d="M227 173.5L138 123.5L161 -28.5L449 -18.5L513 379.5L237 520.5V265.5L227 248.5V173.5Z" fill="#252525"/>
<path d="M449.429 -18.9854L513.552 379.779L236.5 521.317V265.636L226.569 248.754L226.5 248.636V173.792L137.454 123.767L160.572 -29.0156L449.429 -18.9854ZM138.545 123.233L227.245 173.064L227.5 173.207V248.363L237.431 265.246L237.5 265.364V519.683L512.447 379.22L448.57 -18.0146L161.427 -27.9854L138.545 123.233Z" fill="black"/>
</g>
</svg>
