<svg width="2997" height="707" viewBox="0 0 2997 707" fill="none" xmlns="http://www.w3.org/2000/svg">
<path d="M2319.81 242.865H2188.25V705.528H2319.81V242.865Z" fill="#F9F9F9"/>
<path d="M2285.56 224.765H2222.51V260.965H2285.56V224.765Z" fill="#F9F9F9"/>
<path d="M2417.52 386.678H2290.86V705.53H2417.52V386.678Z" fill="#F9F9F9"/>
<path d="M2641.9 375.35H2568.31V705.528H2641.9V375.35Z" fill="#F9F9F9"/>
<path d="M2621.8 360.624H2588.41V421.955H2621.8V360.624Z" fill="#F9F9F9"/>
<path d="M2679.28 474.196H2627.42V705.527H2679.28V474.196Z" fill="#F9F9F9"/>
<path d="M2653.35 443.707H2627.42V511.428H2653.35V443.707Z" fill="#F9F9F9"/>
<path d="M2811.27 615.654H2700.92V705.529H2811.27V615.654Z" fill="#F9F9F9"/>
<path d="M2786.66 606.113H2734.79V626.461H2786.66V606.113Z" fill="#F9F9F9"/>
<path d="M2080.8 356.313H2007.81V705.173H2080.8V356.313Z" fill="#F9F9F9"/>
<path d="M2055.23 338.203H2025.25V368.192H2055.23V338.203Z" fill="#F9F9F9"/>
<path d="M1900.62 292.741H1798.67V626.46H1900.62V292.741Z" fill="#F9F9F9"/>
<path d="M1851.53 334.84C1869.51 331.923 1881.71 314.984 1878.79 297.006C1875.88 279.028 1858.94 266.819 1840.97 269.737C1823 272.654 1810.79 289.594 1813.71 307.572C1816.63 325.549 1833.56 337.758 1851.53 334.84Z" fill="#F9F9F9"/>
<path d="M1629.13 402.859H1511.02V705.53H1629.13V402.859Z" fill="#E8E8E8"/>
<path d="M1518.57 469.54H1496.58V281.161H1507.57L1511.01 371.047L1541.51 414.078L1518.57 469.54Z" fill="#E8E8E8"/>
<path d="M2200.04 191.235H2041.24V705.529H2200.04V191.235Z" fill="#E8E8E8"/>
<path d="M2176.46 183.89H2065.74V205.263H2176.46V183.89Z" fill="#E8E8E8"/>
<path d="M2080.8 170.291H2065.74V198.951H2080.8V170.291Z" fill="#E8E8E8"/>
<path d="M2065.74 170.29L2073.27 163.99L2080.8 170.29L2073.27 178.377L2065.74 170.29Z" fill="#E8E8E8"/>
<path d="M2176.47 170.291H2161.41V198.951H2176.47V170.291Z" fill="#E8E8E8"/>
<path d="M2161.41 170.29L2168.94 163.99L2176.47 170.29L2168.94 178.377L2161.41 170.29Z" fill="#E8E8E8"/>
<path d="M2130.42 162.496H2111.79V194.263H2130.42V162.496Z" fill="#E8E8E8"/>
<path d="M2128.27 158.486H2113.95V190.254H2128.27V158.486Z" fill="#E8E8E8"/>
<path d="M2124.39 131.955H2117.82V198.382H2124.39V131.955Z" fill="#E8E8E8"/>
<path d="M2455.6 257.945V224.248C2455.6 224.248 2448.72 206.947 2408.4 205.344V222.794H2396.24V205.344C2355.91 206.947 2349.04 224.248 2349.04 224.248V257.945H2338.21V705.529H2466.43V257.945H2455.6ZM2411.5 303.606H2393.14V258.72H2411.5V303.606Z" fill="#E8E8E8"/>
<path d="M1975.69 184.622H1849.85V705.527H1975.69V184.622Z" fill="#E8E8E8"/>
<path d="M1949.45 147.928H1876.09V221.318H1949.45V147.928Z" fill="#E8E8E8"/>
<path d="M1824.42 442.038H1711.62V705.529H1824.42V442.038Z" fill="#E8E8E8"/>
<path d="M1886.99 516.92H1805.49V705.526H1886.99V516.92Z" fill="#E8E8E8"/>
<path d="M2073.27 581.467H1965.38V705.529H2073.27V581.467Z" fill="#E8E8E8"/>
<path d="M1805.49 431.979H1733.28V455.436H1805.49V431.979Z" fill="#E8E8E8"/>
<path d="M1776.8 414.823H1765.26V443.707H1776.8V414.823Z" fill="#E8E8E8"/>
<path d="M2080.8 224.765H2065.74V258.717H2080.8V224.765Z" fill="#F9F9F9"/>
<path d="M2111.79 224.765H2096.74V258.717H2111.79V224.765Z" fill="#F9F9F9"/>
<path d="M2142.79 224.765H2127.73V258.717H2142.79V224.765Z" fill="#F9F9F9"/>
<path d="M2173.78 224.765H2158.73V258.717H2173.78V224.765Z" fill="#F9F9F9"/>
<path d="M2080.8 268.507H2065.74V302.459H2080.8V268.507Z" fill="#F9F9F9"/>
<path d="M2111.79 268.507H2096.74V302.459H2111.79V268.507Z" fill="#F9F9F9"/>
<path d="M2142.79 268.507H2127.73V302.459H2142.79V268.507Z" fill="#F9F9F9"/>
<path d="M2173.78 268.507H2158.73V302.459H2173.78V268.507Z" fill="#F9F9F9"/>
<path d="M2080.8 312.249H2065.74V346.202H2080.8V312.249Z" fill="#F9F9F9"/>
<path d="M2111.79 312.249H2096.74V346.202H2111.79V312.249Z" fill="#F9F9F9"/>
<path d="M2142.79 312.249H2127.73V346.202H2142.79V312.249Z" fill="#F9F9F9"/>
<path d="M2173.78 312.249H2158.73V346.202H2173.78V312.249Z" fill="#F9F9F9"/>
<path d="M2080.8 355.989H2065.74V389.942H2080.8V355.989Z" fill="#F9F9F9"/>
<path d="M2111.79 355.989H2096.74V389.942H2111.79V355.989Z" fill="#F9F9F9"/>
<path d="M2142.79 355.989H2127.73V389.942H2142.79V355.989Z" fill="#F9F9F9"/>
<path d="M2173.78 355.989H2158.73V389.942H2173.78V355.989Z" fill="#F9F9F9"/>
<path d="M2080.8 399.73H2065.74V433.683H2080.8V399.73Z" fill="#F9F9F9"/>
<path d="M2111.79 399.73H2096.74V433.683H2111.79V399.73Z" fill="#F9F9F9"/>
<path d="M2142.79 399.73H2127.73V433.683H2142.79V399.73Z" fill="#F9F9F9"/>
<path d="M2173.78 399.73H2158.73V433.683H2173.78V399.73Z" fill="#F9F9F9"/>
<path d="M1998.13 418.305H1956.92V611.226H1998.13V418.305Z" fill="#E8E8E8"/>
<path d="M1923.92 141.762H1900.62V159.519H1923.92V141.762Z" fill="#E8E8E8"/>
<path d="M2997 699.168H1363V707.5H2997V699.168Z" fill="white"/>
<path d="M1609.67 702.561V365.333L1680.47 253.468L1750.58 364.634V702.561H1609.67Z" fill="white"/>
<path d="M2118.2 664.744H1767.84V702.56H2118.2V664.744Z" fill="white"/>
<path d="M2025.25 622.587H1790.19V676.847H2025.25V622.587Z" fill="white"/>
<path d="M1998.13 603.206H1824.42V649.714H1998.13V603.206Z" fill="white"/>
<path d="M1975.69 585.767H1856.06V626.461H1975.69V585.767Z" fill="white"/>
<path d="M1975.69 568.97H1900.62V609.664H1975.69V568.97Z" fill="white"/>
<path d="M1975.69 557.683H1923.92V585.766H1975.69V557.683Z" fill="white"/>
<path d="M1975.69 543.293H1938.15V585.766H1975.69V543.293Z" fill="white"/>
<path d="M2067.87 634.859H2007.81V686.567H2067.87V634.859Z" fill="white"/>
<path d="M2513.24 624.524L2435.31 588.507L2357.38 624.524V699.168H2513.24V624.524Z" fill="white"/>
<path d="M2876.97 671.431L2816.54 643.499L2756.1 671.431V702.367H2876.97V671.431Z" fill="white"/>
<path d="M2579.52 528.752H2451.78V702.562H2579.52V528.752Z" fill="white"/>
<path d="M2550.87 455.469H2480.43V567.392H2550.87V455.469Z" fill="white"/>
<path d="M2541.08 431.981H2490.22V543.904H2541.08V431.981Z" fill="white"/>
<path d="M2530.81 386.679H2500.49V515.924H2530.81V386.679Z" fill="white"/>
<path d="M2517.59 338.918H2513.71V525.046H2517.59V338.918Z" fill="white"/>
<path d="M2711.41 559.638V567.392H2721.43V702.56H2621.8V543.894H2721.43V559.638H2711.41Z" fill="white"/>
<path d="M2711.41 559.637V567.391H2721.43V603.859H2637.14V531.919L2721.43 543.893V559.637H2711.41Z" fill="white"/>
<path d="M1568.2 668.705H1444.23V702.56H1568.2V668.705Z" fill="white"/>
<path d="M1497.62 653.511H1451.4V675.978H1497.62V653.511Z" fill="white"/>
<path d="M1490.71 586.543H1458.32V699.741H1490.71V586.543Z" fill="white"/>
<path d="M1486.5 581.468H1462.53V605.448H1486.5V581.468Z" fill="white"/>
<path d="M2326.19 667.692H2190.46V701.643H2326.19V667.692Z" fill="white"/>
<path d="M2285.56 663.35H2231.09V683.087H2285.56V663.35Z" fill="white"/>
<path d="M2254.87 360.623H2244.56V673.219H2254.87V360.623Z" fill="white"/>
<path d="M2272.09 360.623H2261.78V673.219H2272.09V360.623Z" fill="white"/>
<path d="M2293 355.469C2300.93 336.325 2291.84 314.378 2272.7 306.449C2253.57 298.519 2231.63 307.611 2223.7 326.754C2215.77 345.898 2224.86 367.845 2244 375.774C2263.13 383.703 2285.07 374.612 2293 355.469Z" fill="white"/>
<path d="M1687.91 285.483H1672.33V292.742H1687.91V285.483Z" fill="#E8E8E8"/>
<path d="M1694.15 298.662H1666.1V305.921H1694.15V298.662Z" fill="#E8E8E8"/>
<path d="M1701.16 311.844H1659.09V319.103H1701.16V311.844Z" fill="#E8E8E8"/>
<path d="M1710.33 325.023H1649.92V332.282H1710.33V325.023Z" fill="#E8E8E8"/>
<path d="M1719.83 338.203H1640.42V345.462H1719.83V338.203Z" fill="#E8E8E8"/>
<path d="M1729.76 351.383H1630.49V358.642H1729.76V351.383Z" fill="#E8E8E8"/>
<path d="M1738.15 364.563H1622.1V371.822H1738.15V364.563Z" fill="#E8E8E8"/>
<path d="M1738.15 377.743H1622.1V385.002H1738.15V377.743Z" fill="#E8E8E8"/>
<path d="M1738.15 390.923H1622.1V398.182H1738.15V390.923Z" fill="#E8E8E8"/>
<path d="M1738.15 404.103H1622.1V411.361H1738.15V404.103Z" fill="#E8E8E8"/>
<path d="M1738.15 418.305H1622.1V425.563H1738.15V418.305Z" fill="#E8E8E8"/>
<path d="M1738.15 432.506H1622.1V439.765H1738.15V432.506Z" fill="#E8E8E8"/>
<path d="M1738.15 446.708H1622.1V453.967H1738.15V446.708Z" fill="#E8E8E8"/>
<path d="M1738.15 460.91H1622.1V468.169H1738.15V460.91Z" fill="#E8E8E8"/>
<path d="M1621.91 358.642L1776.8 513.579V699.742L1750.58 702.561L1617.62 529.305" fill="white"/>
<path d="M2619.95 281.01H2849.62C2849.62 281.01 2848.62 256.562 2800.44 259.134C2808 204.084 2750.18 191.724 2734.5 217.888C2705.8 205.015 2674.64 228.563 2675.35 254.786C2634.26 232.936 2619.95 281.01 2619.95 281.01Z" fill="white" fill-opacity="0.08"/>
<path d="M1571.58 163.048H1771.54C1771.54 163.048 1767.67 140.604 1735.95 146.797C1731.31 84.1093 1658.23 87.3675 1664.21 145.717C1605.98 109.649 1571.58 163.048 1571.58 163.048Z" fill="white" fill-opacity="0.08"/>
<path d="M2355.32 100.865H2625.12C2625.12 100.865 2622.76 64.7738 2584.9 66.7381C2601.2 -13.3316 2455.78 -31.1934 2469.69 72.9286C2427.89 62.5118 2438.58 86.8596 2438.58 86.8596C2438.58 86.8596 2378.67 72.661 2355.32 100.865Z" fill="white" fill-opacity="0.08"/>
<path d="M677.189 242.865H808.749V705.528H677.189V242.865Z" fill="#F9F9F9"/>
<path d="M711.443 224.765H774.493V260.965H711.443V224.765Z" fill="#F9F9F9"/>
<path d="M579.477 386.678H706.141V705.53H579.477V386.678Z" fill="#F9F9F9"/>
<path d="M355.101 375.35H428.688V705.528H355.101V375.35Z" fill="#F9F9F9"/>
<path d="M375.196 360.624H408.594V421.955H375.196V360.624Z" fill="#F9F9F9"/>
<path d="M317.717 474.196H369.578V705.527H317.717V474.196Z" fill="#F9F9F9"/>
<path d="M343.646 443.707H369.578V511.428H343.646V443.707Z" fill="#F9F9F9"/>
<path d="M185.727 615.654H296.08V705.529H185.727V615.654Z" fill="#F9F9F9"/>
<path d="M210.343 606.113H262.214V626.461H210.343V606.113Z" fill="#F9F9F9"/>
<path d="M916.201 356.313H989.187V705.173H916.201V356.313Z" fill="#F9F9F9"/>
<path d="M941.772 338.203H971.752V368.192H941.772V338.203Z" fill="#F9F9F9"/>
<path d="M1096.38 292.741H1198.33V626.46H1096.38V292.741Z" fill="#F9F9F9"/>
<path d="M1145.47 334.84C1127.49 331.923 1115.29 314.984 1118.21 297.006C1121.12 279.028 1138.06 266.819 1156.03 269.737C1174 272.654 1186.21 289.594 1183.29 307.572C1180.37 325.549 1163.44 337.758 1145.47 334.84Z" fill="#F9F9F9"/>
<path d="M1367.87 402.859H1485.98V705.53H1367.87V402.859Z" fill="#E8E8E8"/>
<path d="M1478.43 469.54H1500.42V281.161H1489.43L1485.99 371.047L1455.49 414.078L1478.43 469.54Z" fill="#E8E8E8"/>
<path d="M796.963 191.235H955.762V705.529H796.963V191.235Z" fill="#E8E8E8"/>
<path d="M820.536 183.89H931.256V205.263H820.536V183.89Z" fill="#E8E8E8"/>
<path d="M916.201 170.291H931.256V198.951H916.201V170.291Z" fill="#E8E8E8"/>
<path d="M931.256 170.29L923.728 163.99L916.201 170.29L923.728 178.377L931.256 170.29Z" fill="#E8E8E8"/>
<path d="M820.533 170.291H835.588V198.951H820.533V170.291Z" fill="#E8E8E8"/>
<path d="M835.588 170.29L828.061 163.99L820.533 170.29L828.061 178.377L835.588 170.29Z" fill="#E8E8E8"/>
<path d="M866.58 162.496H885.207V194.263H866.58V162.496Z" fill="#E8E8E8"/>
<path d="M868.735 158.486H883.055V190.254H868.735V158.486Z" fill="#E8E8E8"/>
<path d="M872.608 131.955H879.178V198.382H872.608V131.955Z" fill="#E8E8E8"/>
<path d="M541.403 257.945V224.248C541.403 224.248 548.275 206.947 588.597 205.344V222.794H600.765V205.344C641.086 206.947 647.959 224.248 647.959 224.248V257.945H658.791V705.529H530.573V257.945H541.403ZM585.503 303.606H603.859V258.72H585.503V303.606Z" fill="#E8E8E8"/>
<path d="M1021.31 184.622H1147.15V705.527H1021.31V184.622Z" fill="#E8E8E8"/>
<path d="M1047.55 147.928H1120.91V221.318H1047.55V147.928Z" fill="#E8E8E8"/>
<path d="M1172.58 442.038H1285.38V705.529H1172.58V442.038Z" fill="#E8E8E8"/>
<path d="M1110.01 516.92H1191.51V705.526H1110.01V516.92Z" fill="#E8E8E8"/>
<path d="M923.73 581.467H1031.62V705.529H923.73V581.467Z" fill="#E8E8E8"/>
<path d="M1191.51 431.979H1263.72V455.436H1191.51V431.979Z" fill="#E8E8E8"/>
<path d="M1220.2 414.823H1231.74V443.707H1220.2V414.823Z" fill="#E8E8E8"/>
<path d="M916.2 224.765H931.256V258.717H916.2V224.765Z" fill="#F9F9F9"/>
<path d="M885.206 224.765H900.261V258.717H885.206V224.765Z" fill="#F9F9F9"/>
<path d="M854.214 224.765H869.269V258.717H854.214V224.765Z" fill="#F9F9F9"/>
<path d="M823.22 224.765H838.275V258.717H823.22V224.765Z" fill="#F9F9F9"/>
<path d="M916.2 268.507H931.256V302.459H916.2V268.507Z" fill="#F9F9F9"/>
<path d="M885.206 268.507H900.261V302.459H885.206V268.507Z" fill="#F9F9F9"/>
<path d="M854.214 268.507H869.269V302.459H854.214V268.507Z" fill="#F9F9F9"/>
<path d="M823.22 268.507H838.275V302.459H823.22V268.507Z" fill="#F9F9F9"/>
<path d="M916.201 312.249H931.256V346.202H916.201V312.249Z" fill="#F9F9F9"/>
<path d="M885.206 312.249H900.261V346.202H885.206V312.249Z" fill="#F9F9F9"/>
<path d="M854.214 312.249H869.269V346.202H854.214V312.249Z" fill="#F9F9F9"/>
<path d="M823.22 312.249H838.275V346.202H823.22V312.249Z" fill="#F9F9F9"/>
<path d="M916.2 355.989H931.256V389.942H916.2V355.989Z" fill="#F9F9F9"/>
<path d="M885.206 355.989H900.261V389.942H885.206V355.989Z" fill="#F9F9F9"/>
<path d="M854.214 355.989H869.269V389.942H854.214V355.989Z" fill="#F9F9F9"/>
<path d="M823.22 355.989H838.275V389.942H823.22V355.989Z" fill="#F9F9F9"/>
<path d="M916.2 399.73H931.256V433.683H916.2V399.73Z" fill="#F9F9F9"/>
<path d="M885.206 399.73H900.261V433.683H885.206V399.73Z" fill="#F9F9F9"/>
<path d="M854.214 399.73H869.269V433.683H854.214V399.73Z" fill="#F9F9F9"/>
<path d="M823.22 399.73H838.275V433.683H823.22V399.73Z" fill="#F9F9F9"/>
<path d="M998.875 418.305H1040.08V611.226H998.875V418.305Z" fill="#E8E8E8"/>
<path d="M1073.08 141.762H1096.38V159.519H1073.08V141.762Z" fill="#E8E8E8"/>
<path d="M0 699.168H1634V707.5H0V699.168Z" fill="white"/>
<path d="M1387.33 702.561V365.333L1316.53 253.468L1246.42 364.634V702.561H1387.33Z" fill="white"/>
<path d="M878.801 664.744H1229.16V702.56H878.801V664.744Z" fill="white"/>
<path d="M971.752 622.587H1206.81V676.847H971.752V622.587Z" fill="white"/>
<path d="M998.872 603.206H1172.58V649.714H998.872V603.206Z" fill="white"/>
<path d="M1021.31 585.767H1140.94V626.461H1021.31V585.767Z" fill="white"/>
<path d="M1021.31 568.97H1096.38V609.664H1021.31V568.97Z" fill="white"/>
<path d="M1021.31 557.683H1073.08V585.766H1021.31V557.683Z" fill="white"/>
<path d="M1021.31 543.293H1058.85V585.766H1021.31V543.293Z" fill="white"/>
<path d="M929.132 634.859H989.187V686.567H929.132V634.859Z" fill="white"/>
<path d="M483.757 624.524L561.688 588.507L639.618 624.524V699.168H483.757V624.524Z" fill="white"/>
<path d="M120.027 671.431L180.464 643.499L240.903 671.431V702.367H120.027V671.431Z" fill="white"/>
<path d="M417.483 528.752H545.217V702.562H417.483V528.752Z" fill="white"/>
<path d="M446.131 455.469H516.572V567.392H446.131V455.469Z" fill="white"/>
<path d="M455.917 431.981H506.782V543.904H455.917V431.981Z" fill="white"/>
<path d="M466.186 386.679H496.512V515.924H466.186V386.679Z" fill="white"/>
<path d="M479.412 338.918H483.291V525.046H479.412V338.918Z" fill="white"/>
<path d="M285.591 559.638V567.392H275.573V702.56H375.196V543.894H275.573V559.638H285.591Z" fill="white"/>
<path d="M285.592 559.637V567.391H275.574V603.859H359.86V531.919L275.574 543.893V559.637H285.592Z" fill="white"/>
<path d="M1428.8 668.705H1552.77V702.56H1428.8V668.705Z" fill="white"/>
<path d="M1499.38 653.511H1545.6V675.978H1499.38V653.511Z" fill="white"/>
<path d="M1506.29 586.543H1538.68V699.741H1506.29V586.543Z" fill="white"/>
<path d="M1510.5 581.468H1534.47V605.448H1510.5V581.468Z" fill="white"/>
<path d="M670.805 667.692H806.543V701.643H670.805V667.692Z" fill="white"/>
<path d="M711.443 663.35H765.905V683.087H711.443V663.35Z" fill="white"/>
<path d="M742.131 360.623H752.44V673.219H742.131V360.623Z" fill="white"/>
<path d="M724.912 360.623H735.221V673.219H724.912V360.623Z" fill="white"/>
<path d="M703.999 355.469C696.072 336.325 705.159 314.378 724.295 306.449C743.432 298.519 765.372 307.611 773.299 326.754C781.226 345.898 772.139 367.845 753.003 375.774C733.866 383.703 711.926 374.612 703.999 355.469Z" fill="white"/>
<path d="M1309.09 285.483H1324.67V292.742H1309.09V285.483Z" fill="#E8E8E8"/>
<path d="M1302.85 298.662H1330.9V305.921H1302.85V298.662Z" fill="#E8E8E8"/>
<path d="M1295.84 311.844H1337.91V319.103H1295.84V311.844Z" fill="#E8E8E8"/>
<path d="M1286.67 325.023H1347.08V332.282H1286.67V325.023Z" fill="#E8E8E8"/>
<path d="M1277.17 338.203H1356.58V345.462H1277.17V338.203Z" fill="#E8E8E8"/>
<path d="M1267.24 351.383H1366.51V358.642H1267.24V351.383Z" fill="#E8E8E8"/>
<path d="M1258.85 364.563H1374.9V371.822H1258.85V364.563Z" fill="#E8E8E8"/>
<path d="M1258.85 377.743H1374.9V385.002H1258.85V377.743Z" fill="#E8E8E8"/>
<path d="M1258.85 390.923H1374.9V398.182H1258.85V390.923Z" fill="#E8E8E8"/>
<path d="M1258.85 404.103H1374.9V411.361H1258.85V404.103Z" fill="#E8E8E8"/>
<path d="M1258.85 418.305H1374.9V425.563H1258.85V418.305Z" fill="#E8E8E8"/>
<path d="M1258.85 432.506H1374.9V439.765H1258.85V432.506Z" fill="#E8E8E8"/>
<path d="M1258.85 446.708H1374.9V453.967H1258.85V446.708Z" fill="#E8E8E8"/>
<path d="M1258.85 460.91H1374.9V468.169H1258.85V460.91Z" fill="#E8E8E8"/>
<path d="M1375.09 358.642L1220.2 513.579V699.742L1246.42 702.561L1379.38 529.305" fill="white"/>
<path d="M377.05 281.01H147.38C147.38 281.01 148.378 256.562 196.561 259.134C188.997 204.084 246.819 191.724 262.504 217.888C291.198 205.015 322.364 228.563 321.648 254.786C362.737 232.936 377.05 281.01 377.05 281.01Z" fill="white" fill-opacity="0.08"/>
<path d="M1425.42 163.048H1225.46C1225.46 163.048 1229.33 140.604 1261.05 146.797C1265.69 84.1093 1338.77 87.3675 1332.79 145.717C1391.02 109.649 1425.42 163.048 1425.42 163.048Z" fill="white" fill-opacity="0.08"/>
<path d="M641.684 100.865H371.881C371.881 100.865 374.238 64.7738 412.1 66.7381C395.805 -13.3316 541.216 -31.1934 527.311 72.9286C569.107 62.5118 558.417 86.8596 558.417 86.8596C558.417 86.8596 618.325 72.661 641.684 100.865Z" fill="white" fill-opacity="0.08"/>
</svg>
