<svg width="2596" height="2618" viewBox="0 0 2596 2618" fill="none" xmlns="http://www.w3.org/2000/svg">
<circle cx="1314" cy="1317" r="573.5" stroke="#E1E1E1"/>
<circle cx="1314.5" cy="1316.5" r="831" stroke="#E1E1E1" stroke-opacity="0.8"/>
<circle cx="1314.5" cy="1316.5" r="1067" stroke="#E1E1E1" stroke-opacity="0.6"/>
<circle cx="1314.5" cy="1316.5" r="1281" stroke="#E1E1E1" stroke-opacity="0.4"/>
<g opacity="0.7">
<rect x="887.5" y="0.5" width="179" height="179" rx="36.5" fill="#EBEBEB" fill-opacity="0.4" stroke="#AEAEAE"/>
<path d="M927.018 67.2524C927.018 65.4903 927.529 63.7657 928.492 62.2894C929.445 60.8269 930.801 59.6687 932.394 58.9555L971.348 41.2297L972.018 40.9456C973.604 40.3223 975.295 40.0003 977.003 40C978.956 40 980.887 40.4197 982.663 41.2297L1021.71 59.0043C1023.3 59.7175 1024.65 60.8712 1025.61 62.3338C1026.57 63.8102 1027.08 65.5344 1027.08 67.2968C1027.08 69.06 1026.57 70.7873 1025.61 72.2643C1024.65 73.728 1023.3 74.8807 1021.7 75.5938L1021.71 75.5982L982.708 93.3196C980.932 94.1295 979.004 94.5535 977.052 94.5537C975.343 94.5537 973.649 94.2318 972.062 93.6081L971.392 93.324L932.389 75.5494C930.799 74.836 929.444 73.6805 928.492 72.2199C927.529 70.743 927.018 69.0156 927.018 67.2524ZM936.162 67.2746L975.161 85.0493C975.753 85.3194 976.401 85.4622 977.052 85.4622C977.703 85.462 978.347 85.3193 978.939 85.0493L1017.95 67.319L1017.99 67.2968L1017.94 67.2791L978.894 49.5044L978.89 49.5C978.298 49.2305 977.653 49.0915 977.003 49.0915C976.354 49.0918 975.712 49.2308 975.121 49.5L975.117 49.5044L936.109 67.2524L936.162 67.2746Z" fill="#EAEAEA" fill-opacity="0.6"/>
<path d="M1022.43 85.4597C1024.94 85.44 1026.99 87.4596 1027.01 89.9699C1027.02 91.7341 1026.52 93.4657 1025.57 94.9508C1024.62 96.435 1023.25 97.6102 1021.64 98.3334L982.659 116.055L982.65 116.059C980.883 116.859 978.965 117.271 977.026 117.271C975.086 117.271 973.168 116.859 971.401 116.059L971.397 116.055L932.3 98.2802L932.274 98.2669C930.696 97.5365 929.36 96.3683 928.425 94.9019C927.491 93.4357 926.996 91.7307 927 89.9921C927.007 87.4825 929.049 85.4535 931.559 85.4597C934.068 85.467 936.092 87.5055 936.087 90.0143L975.148 107.776H975.152C975.741 108.042 976.379 108.18 977.026 108.18C977.67 108.18 978.307 108.041 978.894 107.776L1017.9 90.0498L1017.92 90.041C1017.9 87.5307 1019.92 85.4795 1022.43 85.4597Z" fill="#EAEAEA" fill-opacity="0.6"/>
<path d="M1022.43 108.188C1024.94 108.169 1026.99 110.188 1027.01 112.699C1027.02 114.463 1026.52 116.194 1025.57 117.68C1024.62 119.164 1023.25 120.339 1021.64 121.062L982.659 138.784L982.65 138.788C980.883 139.588 978.965 140 977.026 140C975.086 140 973.168 139.588 971.401 138.788L971.397 138.784L932.3 121.009L932.274 120.996C930.696 120.265 929.36 119.097 928.425 117.631C927.491 116.165 926.996 114.46 927 112.721C927.007 110.211 929.049 108.182 931.559 108.188C934.068 108.196 936.092 110.234 936.087 112.743L975.148 130.505H975.152C975.741 130.771 976.379 130.908 977.026 130.908C977.67 130.908 978.307 130.77 978.894 130.505L1017.9 112.779L1017.92 112.77C1017.9 110.259 1019.92 108.208 1022.43 108.188Z" fill="#EAEAEA" fill-opacity="0.6"/>
</g>
<g opacity="0.6">
<rect x="346.5" y="694.5" width="136" height="136" rx="36.5" fill="#EBEBEB" fill-opacity="0.4" stroke="#AEAEAE"/>
<g opacity="0.6">
<path d="M405.091 734.364V740.727H424.182V734.364H405.091ZM430.546 740.727C430.546 744.242 427.697 747.091 424.182 747.091H405.091C401.577 747.091 398.728 744.242 398.728 740.727V734.364C398.728 730.849 401.577 728 405.091 728H424.182C427.697 728 430.546 730.849 430.546 734.364V740.727Z" fill="#EAEAEA" fill-opacity="0.6"/>
<path d="M386 788.454V743.909C386 741.377 387.006 738.95 388.797 737.16C390.587 735.37 393.014 734.364 395.545 734.364H401.909C403.666 734.364 405.091 735.788 405.091 737.545C405.091 739.303 403.666 740.727 401.909 740.727H395.545C394.702 740.727 393.893 741.063 393.296 741.659C392.699 742.256 392.364 743.065 392.364 743.909V788.454L392.379 788.768C392.451 789.497 392.774 790.182 393.296 790.704C393.893 791.301 394.702 791.636 395.545 791.636H433.727C434.571 791.636 435.38 791.301 435.977 790.704C436.574 790.107 436.909 789.298 436.909 788.454V743.909C436.909 743.065 436.574 742.256 435.977 741.659C435.455 741.137 434.77 740.815 434.041 740.743L433.727 740.727H427.364C425.606 740.727 424.182 739.303 424.182 737.545C424.182 735.788 425.606 734.364 427.364 734.364H433.727C436.259 734.364 438.686 735.37 440.476 737.16C442.266 738.95 443.273 741.377 443.273 743.909V788.454C443.273 790.986 442.266 793.413 440.476 795.203C438.686 796.993 436.259 798 433.727 798H395.545C393.014 798 390.587 796.993 388.797 795.203C387.006 793.413 386 790.986 386 788.454Z" fill="#EAEAEA" fill-opacity="0.6"/>
<path d="M427.363 756.636C429.12 756.636 430.545 758.061 430.545 759.818C430.545 761.575 429.12 763 427.363 763H414.636C412.879 763 411.454 761.575 411.454 759.818C411.454 758.061 412.879 756.636 414.636 756.636H427.363Z" fill="#EAEAEA" fill-opacity="0.6"/>
<path d="M427.363 772.545C429.12 772.545 430.545 773.97 430.545 775.727C430.545 777.484 429.12 778.909 427.363 778.909H414.636C412.879 778.909 411.454 777.484 411.454 775.727C411.454 773.97 412.879 772.545 414.636 772.545H427.363Z" fill="#EAEAEA" fill-opacity="0.6"/>
<path d="M401.94 756.636C403.698 756.636 405.122 758.061 405.122 759.818C405.122 761.575 403.698 763 401.94 763H401.909C400.152 763 398.728 761.575 398.728 759.818C398.728 758.061 400.152 756.636 401.909 756.636H401.94Z" fill="#EAEAEA" fill-opacity="0.6"/>
<path d="M401.94 772.545C403.698 772.545 405.122 773.97 405.122 775.727C405.122 777.484 403.698 778.909 401.94 778.909H401.909C400.152 778.909 398.728 777.484 398.728 775.727C398.728 773.97 400.152 772.545 401.909 772.545H401.94Z" fill="#EAEAEA" fill-opacity="0.6"/>
</g>
</g>
<path d="M1578 1345.64C1578 1350.57 1575.54 1355.82 1570.61 1361.39L1490.5 1455.89C1483.66 1464 1474.09 1470.88 1461.77 1476.53C1449.45 1482.18 1438.04 1485 1427.55 1485H1168.15C1162.74 1485 1157.94 1483.97 1153.72 1481.9C1149.51 1479.83 1147.41 1476.41 1147.41 1471.64C1147.41 1466.7 1149.87 1461.45 1154.8 1455.89L1234.91 1361.39C1241.74 1353.27 1251.32 1346.39 1263.64 1340.74C1275.96 1335.1 1287.36 1332.27 1297.85 1332.27H1557.26C1562.66 1332.27 1567.47 1333.31 1571.68 1335.38C1575.89 1337.44 1578 1340.86 1578 1345.64ZM1496.22 1263.55V1301.73H1297.85C1282.91 1301.73 1267.25 1305.51 1250.88 1313.06C1234.51 1320.62 1221.48 1330.13 1211.78 1341.58L1131.43 1436.08L1130.24 1437.51C1130.24 1436.87 1130.2 1435.88 1130.12 1434.53C1130.04 1433.18 1130 1432.18 1130 1431.55V1202.45C1130 1187.82 1135.25 1175.25 1145.74 1164.75C1156.23 1154.25 1168.78 1149 1183.41 1149H1259.7C1274.33 1149 1286.88 1154.25 1297.37 1164.75C1307.86 1175.25 1313.11 1187.82 1313.11 1202.45V1210.09H1442.81C1457.44 1210.09 1469.99 1215.34 1480.48 1225.84C1490.97 1236.34 1496.22 1248.91 1496.22 1263.55V1263.55Z" fill="#F3F3F3" fill-opacity="0.5"/>
<rect x="1578" y="502" width="241" height="241" rx="37" fill="#EDEDED" fill-opacity="0.4"/>
<rect x="1578.5" y="502.5" width="240" height="240" rx="36.5" stroke="#EAEAEA" stroke-opacity="0.5"/>
<path d="M1747.5 578.75C1747.5 575.298 1744.7 572.5 1741.25 572.5H1653.75C1650.3 572.5 1647.5 575.298 1647.5 578.75V666.25C1647.5 669.702 1650.3 672.5 1653.75 672.5H1741.25C1744.7 672.5 1747.5 669.702 1747.5 666.25V578.75ZM1760 666.25C1760 676.605 1751.61 685 1741.25 685H1653.75C1643.39 685 1635 676.605 1635 666.25V578.75C1635 568.395 1643.39 560 1653.75 560H1741.25C1751.61 560 1760 568.395 1760 578.75V666.25Z" fill="#EAEAEA" fill-opacity="0.6"/>
<path d="M1684.71 603.534C1684.71 600.122 1681.95 597.356 1678.53 597.356C1675.12 597.356 1672.36 600.122 1672.36 603.534C1672.36 606.947 1675.12 609.713 1678.53 609.713C1681.95 609.713 1684.71 606.947 1684.71 603.534ZM1697.07 603.534C1697.07 613.771 1688.77 622.069 1678.53 622.069C1668.3 622.069 1660 613.771 1660 603.534C1660 593.298 1668.3 585 1678.53 585C1688.77 585 1697.07 593.298 1697.07 603.534Z" fill="#EAEAEA" fill-opacity="0.6"/>
<path d="M1725.7 611.724C1730.66 611.724 1735.42 613.706 1738.93 617.236V617.242L1758.17 636.616C1760.61 639.068 1760.61 643.042 1758.17 645.493C1755.74 647.944 1751.79 647.944 1749.35 645.493L1730.11 626.12C1728.94 624.943 1727.35 624.28 1725.7 624.28C1724.04 624.28 1722.45 624.943 1721.29 626.12L1664.61 683.162C1662.18 685.613 1658.23 685.613 1655.79 683.162C1653.36 680.711 1653.36 676.736 1655.79 674.284L1712.47 617.242V617.236C1715.97 613.706 1720.73 611.724 1725.7 611.724Z" fill="#EAEAEA" fill-opacity="0.6"/>
<rect x="646" y="1806" width="241" height="241" rx="37" fill="#EDEDED" fill-opacity="0.4"/>
<rect x="646.5" y="1806.5" width="240" height="240" rx="36.5" stroke="#EAEAEA" stroke-opacity="0.5"/>
<path d="M760.338 1982.75V1870.25C760.338 1866.8 763.097 1864 766.5 1864C769.903 1864 772.662 1866.8 772.662 1870.25V1982.75C772.662 1986.2 769.903 1989 766.5 1989C763.097 1989 760.338 1986.2 760.338 1982.75Z" fill="#EAEAEA" fill-opacity="0.6"/>
<path d="M816.5 1882.75C816.5 1879.3 813.702 1876.5 810.25 1876.5H722.75C719.298 1876.5 716.5 1879.3 716.5 1882.75V1970.25C716.5 1973.7 719.298 1976.5 722.75 1976.5H810.25C813.702 1976.5 816.5 1973.7 816.5 1970.25V1882.75ZM829 1970.25C829 1980.61 820.605 1989 810.25 1989H722.75C712.395 1989 704 1980.61 704 1970.25V1882.75C704 1872.39 712.395 1864 722.75 1864H810.25C820.605 1864 829 1872.39 829 1882.75V1970.25Z" fill="#EAEAEA" fill-opacity="0.6"/>
<path d="M822.75 1901.85C826.202 1901.85 829 1904.61 829 1908.01C829 1911.42 826.202 1914.18 822.75 1914.18H710.25C706.798 1914.18 704 1911.42 704 1908.01C704 1904.61 706.798 1901.85 710.25 1901.85H822.75Z" fill="#EAEAEA" fill-opacity="0.6"/>
<path d="M822.75 1938.82C826.202 1938.82 829 1941.58 829 1944.99C829 1948.39 826.202 1951.15 822.75 1951.15H710.25C706.798 1951.15 704 1948.39 704 1944.99C704 1941.58 706.798 1938.82 710.25 1938.82H822.75Z" fill="#EAEAEA" fill-opacity="0.6"/>
<g opacity="0.6">
<rect x="0.5" y="1577.5" width="136" height="136" rx="36.5" fill="#EBEBEB" fill-opacity="0.4" stroke="#AEAEAE"/>
<path d="M39 1671.45V1620.55C39 1618.01 40.0049 1615.59 41.7925 1613.8C43.58 1612.01 46.0037 1611 48.5316 1611H77.1264L77.4397 1611.02C78.1673 1611.09 78.8512 1611.41 79.3727 1611.93L95.2587 1627.84C95.8546 1628.44 96.1895 1629.25 96.1895 1630.09V1671.45C96.1895 1673.99 95.1846 1676.41 93.3971 1678.2C91.6096 1679.99 89.1859 1681 86.658 1681H48.5316C46.0037 1681 43.58 1679.99 41.7925 1678.2C40.0049 1676.41 39 1673.99 39 1671.45ZM45.3544 1671.45C45.3544 1672.3 45.6894 1673.11 46.2852 1673.7C46.8811 1674.3 47.6889 1674.64 48.5316 1674.64H86.658C87.5006 1674.64 88.3085 1674.3 88.9043 1673.7C89.5002 1673.11 89.8351 1672.3 89.8351 1671.45V1631.41L75.8108 1617.36H48.5316C47.6889 1617.36 46.8811 1617.7 46.2852 1618.3C45.6894 1618.89 45.3544 1619.7 45.3544 1620.55V1671.45Z" fill="#EAEAEA" fill-opacity="0.6"/>
<path d="M70.5684 1627.01V1614.2C70.5684 1612.43 72.0022 1611 73.771 1611C75.5397 1611 76.9736 1612.43 76.9736 1614.2V1627.01C76.9736 1627.86 77.3112 1628.68 77.9119 1629.28C78.5125 1629.88 79.3268 1630.22 80.1762 1630.22H92.9867C94.7554 1630.22 96.1893 1631.65 96.1893 1633.42C96.1893 1635.19 94.7554 1636.62 92.9867 1636.62H80.1762C77.628 1636.62 75.185 1635.61 73.3832 1633.81C71.5813 1632 70.5684 1629.56 70.5684 1627.01Z" fill="#EAEAEA" fill-opacity="0.6"/>
<path d="M61.4184 1646.23C63.1871 1646.23 64.621 1647.66 64.621 1649.43C64.621 1651.2 63.1871 1652.63 61.4184 1652.63H55.0132C53.2444 1652.63 51.8105 1651.2 51.8105 1649.43C51.8105 1647.66 53.2444 1646.23 55.0132 1646.23H61.4184Z" fill="#EAEAEA" fill-opacity="0.6"/>
<path d="M80.1762 1646.23C81.945 1646.23 83.3788 1647.66 83.3788 1649.43C83.3788 1651.2 81.945 1652.63 80.1762 1652.63H73.771C72.0022 1652.63 70.5684 1651.2 70.5684 1649.43C70.5684 1647.66 72.0022 1646.23 73.771 1646.23H80.1762Z" fill="#EAEAEA" fill-opacity="0.6"/>
<path d="M61.4184 1658.58C63.1871 1658.58 64.621 1660.02 64.621 1661.78C64.621 1663.55 63.1871 1664.99 61.4184 1664.99H55.0132C53.2444 1664.99 51.8105 1663.55 51.8105 1661.78C51.8105 1660.02 53.2444 1658.58 55.0132 1658.58H61.4184Z" fill="#EAEAEA" fill-opacity="0.6"/>
<path d="M80.1762 1658.58C81.945 1658.58 83.3788 1660.02 83.3788 1661.78C83.3788 1663.55 81.945 1664.99 80.1762 1664.99H73.771C72.0022 1664.99 70.5684 1663.55 70.5684 1661.78C70.5684 1660.02 72.0022 1658.58 73.771 1658.58H80.1762Z" fill="#EAEAEA" fill-opacity="0.6"/>
</g>
<g opacity="0.7">
<rect x="1578.5" y="2438.5" width="179" height="179" rx="36.5" fill="#EBEBEB" fill-opacity="0.4" stroke="#AEAEAE"/>
<path d="M1668.46 2478C1670.85 2478 1673.19 2478.63 1675.26 2479.82L1675.26 2479.82L1707.08 2498L1707.1 2498.01L1707.86 2498.48C1709.59 2499.64 1711.04 2501.19 1712.09 2503C1713.28 2505.07 1713.92 2507.42 1713.92 2509.81V2546.18C1713.92 2548.57 1713.28 2550.92 1712.09 2552.99C1710.89 2555.06 1709.17 2556.78 1707.1 2557.98L1707.08 2557.99L1675.26 2576.18L1675.26 2576.17C1673.19 2577.36 1670.85 2577.99 1668.46 2577.99C1666.07 2577.99 1663.73 2577.36 1661.66 2576.17V2576.18L1629.84 2557.99L1629.82 2557.98C1627.75 2556.78 1626.03 2555.06 1624.83 2552.99C1623.63 2550.92 1623 2548.57 1623 2546.18V2509.81L1623.03 2508.91C1623.17 2506.83 1623.78 2504.81 1624.83 2503C1626.03 2500.93 1627.75 2499.21 1629.82 2498.01L1629.84 2498L1661.66 2479.82V2479.82C1663.73 2478.63 1666.07 2478 1668.46 2478ZM1668.46 2487.09C1667.66 2487.09 1666.88 2487.3 1666.19 2487.7L1666.17 2487.71L1634.36 2505.88L1634.36 2505.88C1633.67 2506.28 1633.1 2506.86 1632.7 2507.55C1632.3 2508.24 1632.09 2509.02 1632.09 2509.82V2546.17L1632.13 2546.77C1632.21 2547.36 1632.4 2547.93 1632.7 2548.44C1633.1 2549.13 1633.66 2549.7 1634.35 2550.09L1666.17 2568.28L1666.19 2568.29C1666.88 2568.69 1667.66 2568.9 1668.46 2568.9C1669.26 2568.9 1670.04 2568.69 1670.73 2568.29L1670.75 2568.28L1702.57 2550.09C1703.25 2549.7 1703.82 2549.13 1704.22 2548.44C1704.62 2547.76 1704.82 2546.97 1704.83 2546.18V2509.82L1704.79 2509.22C1704.71 2508.63 1704.52 2508.07 1704.22 2507.55C1703.82 2506.86 1703.24 2506.28 1702.55 2505.88V2505.88L1670.75 2487.71L1670.73 2487.7C1670.04 2487.3 1669.26 2487.09 1668.46 2487.09Z" fill="#EAEAEA" fill-opacity="0.6"/>
<path d="M1663.91 2573.45V2528C1663.91 2525.48 1665.95 2523.45 1668.46 2523.45C1670.97 2523.45 1673 2525.48 1673 2528V2573.45C1673 2575.96 1670.97 2578 1668.46 2578C1665.95 2578 1663.91 2575.96 1663.91 2573.45Z" fill="#EAEAEA" fill-opacity="0.6"/>
<path d="M1705.79 2501.32C1707.97 2500.07 1710.75 2500.83 1712 2503C1713.25 2505.18 1712.49 2507.96 1710.32 2509.21L1670.72 2531.94C1669.32 2532.74 1667.6 2532.74 1666.2 2531.94L1626.6 2509.21C1624.42 2507.96 1623.67 2505.18 1624.92 2503C1626.17 2500.83 1628.95 2500.07 1631.13 2501.32L1668.46 2522.75L1705.79 2501.32Z" fill="#EAEAEA" fill-opacity="0.6"/>
<path d="M1644.06 2490.6C1645.3 2488.42 1648.08 2487.66 1650.26 2488.91L1691.18 2512.32C1693.35 2513.57 1694.11 2516.35 1692.86 2518.52C1691.62 2520.7 1688.84 2521.46 1686.66 2520.21L1645.74 2496.8C1643.57 2495.56 1642.81 2492.77 1644.06 2490.6Z" fill="#EAEAEA" fill-opacity="0.6"/>
</g>
<g opacity="0.6">
<rect x="2389.5" y="679.5" width="136" height="136" rx="36.5" fill="#EBEBEB" fill-opacity="0.4" stroke="#AEAEAE"/>
<path d="M2478.09 723.909C2478.09 721.378 2477.08 718.95 2475.29 717.16C2473.5 715.37 2471.08 714.364 2468.55 714.364C2466.01 714.364 2463.58 715.37 2461.79 717.16L2435.16 744.345C2435.14 744.359 2435.13 744.373 2435.11 744.386C2433.62 745.858 2432.43 747.612 2431.61 749.547C2430.8 751.482 2430.37 753.562 2430.36 755.662C2430.36 757.762 2430.76 759.842 2431.56 761.783C2432.36 763.725 2433.54 765.49 2435.02 766.975C2436.51 768.46 2438.27 769.637 2440.21 770.437C2442.16 771.237 2444.24 771.645 2446.34 771.636C2448.44 771.628 2450.52 771.202 2452.45 770.387C2454.39 769.572 2456.14 768.379 2457.61 766.882L2484.27 739.681C2485.5 738.426 2487.51 738.406 2488.77 739.635C2490.02 740.865 2490.04 742.879 2488.81 744.134L2462.15 771.341L2462.15 771.347C2460.09 773.443 2457.63 775.109 2454.92 776.25C2452.21 777.392 2449.3 777.988 2446.36 778C2443.42 778.012 2440.51 777.441 2437.79 776.322C2435.07 775.202 2432.6 773.553 2430.52 771.475C2428.44 769.396 2426.8 766.925 2425.68 764.207C2424.56 761.488 2423.99 758.574 2424 755.634C2424.01 752.694 2424.61 749.786 2425.75 747.077C2426.89 744.368 2428.56 741.911 2430.65 739.849L2457.27 712.683L2457.29 712.661C2460.28 709.677 2464.33 708 2468.55 708C2472.76 708 2476.81 709.678 2479.79 712.661C2482.78 715.644 2484.45 719.69 2484.45 723.909C2484.45 728.128 2482.78 732.177 2479.79 735.16L2479.79 735.157L2453.04 762.454L2453.02 762.479C2451.23 764.269 2448.8 765.275 2446.27 765.276C2443.74 765.276 2441.31 764.269 2439.52 762.479C2437.73 760.689 2436.72 758.259 2436.72 755.727C2436.72 753.206 2437.72 750.788 2439.5 749L2466.27 721.681C2467.5 720.426 2469.52 720.405 2470.77 721.635C2472.03 722.864 2472.04 724.879 2470.81 726.134L2444.04 753.453L2444.02 753.478C2443.42 754.074 2443.09 754.883 2443.09 755.727C2443.09 756.571 2443.42 757.38 2444.02 757.977C2444.62 758.574 2445.43 758.912 2446.27 758.912C2447.01 758.912 2447.72 758.655 2448.29 758.191L2448.52 757.977L2475.27 730.683L2475.29 730.658C2477.08 728.868 2478.09 726.44 2478.09 723.909Z" fill="#EAEAEA" fill-opacity="0.6"/>
</g>
<g opacity="0.7">
<path d="M2226 1626.5H2332C2352.16 1626.5 2368.5 1642.84 2368.5 1663V1769C2368.5 1789.16 2352.16 1805.5 2332 1805.5H2226C2205.84 1805.5 2189.5 1789.16 2189.5 1769V1663C2189.5 1642.84 2205.84 1626.5 2226 1626.5Z" fill="#EBEBEB" fill-opacity="0.4" stroke="#AEAEAE"/>
<path d="M2237.55 1766H2283.05C2284.26 1766 2285.41 1765.52 2286.27 1764.67C2287.12 1763.82 2287.6 1762.66 2287.6 1761.45V1706.91C2287.6 1705.7 2287.12 1704.55 2286.27 1703.69C2285.41 1702.84 2284.26 1702.36 2283.05 1702.36H2237.55C2236.34 1702.36 2235.19 1702.84 2234.33 1703.69C2233.48 1704.55 2233 1705.7 2233 1706.91V1761.45C2233 1762.66 2233.48 1763.82 2234.33 1764.67C2235.19 1765.52 2236.34 1766 2237.55 1766ZM2242.1 1711.45H2278.5V1756.91H2242.1V1711.45Z" fill="#EAEAEA" fill-opacity="0.6"/>
<path d="M2301.25 1747.82C2302.46 1747.82 2303.61 1747.34 2304.47 1746.49C2305.32 1745.63 2305.8 1744.48 2305.8 1743.27V1688.73C2305.8 1687.52 2305.32 1686.37 2304.47 1685.51C2303.61 1684.66 2302.46 1684.18 2301.25 1684.18H2255.75C2254.54 1684.18 2253.39 1684.66 2252.53 1685.51C2251.68 1686.37 2251.2 1687.52 2251.2 1688.73C2251.2 1689.93 2251.68 1691.09 2252.53 1691.94C2253.39 1692.79 2254.54 1693.27 2255.75 1693.27H2296.7V1743.27C2296.7 1744.48 2297.18 1745.63 2298.03 1746.49C2298.89 1747.34 2300.04 1747.82 2301.25 1747.82Z" fill="#EAEAEA" fill-opacity="0.6"/>
<path d="M2319.45 1666H2273.95C2272.74 1666 2271.59 1666.48 2270.73 1667.33C2269.88 1668.18 2269.4 1669.34 2269.4 1670.55C2269.4 1671.75 2269.88 1672.91 2270.73 1673.76C2271.59 1674.61 2272.74 1675.09 2273.95 1675.09H2314.9V1729.64C2314.9 1730.84 2315.38 1732 2316.23 1732.85C2317.09 1733.7 2318.24 1734.18 2319.45 1734.18C2320.66 1734.18 2321.81 1733.7 2322.67 1732.85C2323.52 1732 2324 1730.84 2324 1729.64V1670.55C2324 1669.34 2323.52 1668.18 2322.67 1667.33C2321.81 1666.48 2320.66 1666 2319.45 1666Z" fill="#EAEAEA" fill-opacity="0.6"/>
</g>
</svg>
