<svg width="3460" height="581" viewBox="0 0 3460 581" fill="none" xmlns="http://www.w3.org/2000/svg">
<path d="M79.3063 473.861V402.246V356.673V273.812L174 330.631V531.863L245.613 579.803L244.429 285.057L0 143.288L4.14287 428.879L79.3063 473.861Z" fill="#BFBFBF"/>
<path d="M261.591 580.999L416.061 488.669L449.204 469.138L509.571 434.81V347.215L334.387 447.831V333.01L509.571 234.761V153.677L259.815 285.069L261.591 580.999Z" fill="white"/>
<path d="M246.8 1L1.18739 134.76L75.1671 178.558L246.8 79.7174L426.127 186.844L499.515 147.781L246.8 1Z" fill="#7E7E7E" stroke="black"/>
<path d="M3175.85 466C3152.58 466 3131.81 460.844 3113.54 450.533C3095.27 439.927 3080.84 425.491 3070.23 407.225C3059.63 388.959 3054.32 368.188 3054.32 344.914C3054.32 321.64 3059.63 300.869 3070.23 282.603C3080.84 264.337 3095.27 250.049 3113.54 239.737C3131.81 229.131 3152.58 223.828 3175.85 223.828C3198.83 223.828 3219.45 229.131 3237.72 239.737C3255.99 250.049 3270.27 264.337 3280.59 282.603C3291.19 300.869 3296.49 321.64 3296.49 344.914C3296.49 368.188 3291.19 388.959 3280.59 407.225C3270.27 425.491 3255.99 439.927 3237.72 450.533C3219.45 460.844 3198.83 466 3175.85 466ZM3175.85 417.831C3188.52 417.831 3199.71 414.59 3209.44 408.109C3219.45 401.627 3227.26 392.936 3232.86 382.035C3238.75 371.135 3241.55 358.761 3241.25 344.914C3241.55 330.773 3238.75 318.252 3232.86 307.351C3227.26 296.45 3219.45 287.906 3209.44 281.719C3199.71 275.238 3188.52 271.997 3175.85 271.997C3163.18 271.997 3151.69 275.238 3141.38 281.719C3131.36 287.906 3123.56 296.597 3117.96 307.793C3112.36 318.693 3109.56 331.067 3109.56 344.914C3109.56 358.761 3112.36 371.135 3117.96 382.035C3123.56 392.936 3131.36 401.627 3141.38 408.109C3151.69 414.59 3163.18 417.831 3175.85 417.831Z" fill="white" fill-opacity="0.75"/>
<path d="M2893.27 461.581V228.689H2946.74L2947.63 302.932L2940.11 286.139C2943.35 274.354 2948.95 263.748 2956.91 254.32C2964.86 244.893 2973.99 237.528 2984.31 232.224C2994.91 226.627 3005.96 223.828 3017.45 223.828C3022.46 223.828 3027.17 224.27 3031.59 225.154C3036.31 226.038 3040.13 227.069 3043.08 228.247L3028.5 287.906C3025.26 286.139 3021.28 284.666 3016.57 283.487C3011.85 282.309 3007.14 281.72 3002.42 281.72C2995.06 281.72 2987.99 283.193 2981.21 286.139C2974.73 288.79 2968.99 292.62 2963.98 297.629C2958.97 302.637 2954.99 308.529 2952.05 315.305C2949.39 321.787 2948.07 329.152 2948.07 337.401V461.581H2893.27Z" fill="white" fill-opacity="0.75"/>
<path d="M2618.59 461.583V152.239H2747.19C2764.87 152.239 2780.78 156.511 2794.92 165.054C2809.36 173.598 2820.85 185.235 2829.39 199.966C2837.93 214.697 2842.21 231.195 2842.21 249.461C2842.21 268.022 2837.93 284.815 2829.39 299.84C2820.85 314.571 2809.36 326.355 2794.92 335.194C2780.78 344.032 2764.87 348.451 2747.19 348.451H2676.04V461.583H2618.59ZM2676.04 295.421H2743.22C2750.58 295.421 2757.21 293.359 2763.1 289.234C2769.29 285.109 2774.15 279.659 2777.69 272.883C2781.52 266.107 2783.43 258.447 2783.43 249.903C2783.43 241.359 2781.52 233.847 2777.69 227.365C2774.15 220.589 2769.29 215.286 2763.1 211.456C2757.21 207.331 2750.58 205.269 2743.22 205.269H2676.04V295.421Z" fill="white" fill-opacity="0.75"/>
<path d="M2374.18 461.582L2307.89 371.872L2295.52 355.079L2199.62 228.69H2266.79L2331.32 316.19L2345.01 334.751L2440.03 461.582H2374.18ZM2199.18 461.582L2291.54 337.844L2322.48 374.965L2263.26 461.582H2199.18ZM2345.01 352.869L2315.41 316.19L2368.88 228.69H2432.96L2345.01 352.869Z" fill="white"/>
<path d="M2075 466C2050.54 466 2028.89 460.844 2010.03 450.533C1991.47 440.221 1976.89 426.227 1966.28 408.55C1955.97 390.579 1950.82 370.103 1950.82 347.123C1950.82 328.857 1953.76 312.212 1959.66 297.187C1965.55 282.161 1973.65 269.198 1983.96 258.298C1994.57 247.102 2007.09 238.559 2021.52 232.666C2036.25 226.479 2052.31 223.386 2069.69 223.386C2085.01 223.386 2099.3 226.332 2112.56 232.224C2125.82 238.117 2137.31 246.218 2147.03 256.53C2156.75 266.547 2164.12 278.626 2169.13 292.767C2174.43 306.614 2176.93 321.787 2176.64 338.285L2176.2 357.288H1987.5L1977.33 320.166H2130.68L2123.61 327.679V317.957C2122.72 308.824 2119.78 300.869 2114.77 294.093C2109.76 287.022 2103.28 281.572 2095.32 277.742C2087.66 273.617 2079.12 271.555 2069.69 271.555C2055.26 271.555 2043.03 274.354 2033.01 279.952C2023.29 285.549 2015.93 293.651 2010.92 304.257C2005.91 314.569 2003.41 327.532 2003.41 343.146C2003.41 358.171 2006.5 371.282 2012.69 382.477C2019.17 393.672 2028.15 402.363 2039.64 408.55C2051.43 414.443 2065.13 417.389 2080.74 417.389C2091.64 417.389 2101.66 415.621 2110.79 412.086C2119.92 408.55 2129.79 402.216 2140.4 393.083L2167.36 430.646C2159.4 438.012 2150.27 444.346 2139.96 449.649C2129.94 454.657 2119.34 458.635 2108.14 461.581C2096.94 464.527 2085.9 466 2075 466Z" fill="white"/>
<path d="M1821.43 461.582V169.472H1875.78V461.582H1821.43ZM1775.47 279.068V228.689H1926.61V279.068H1775.47Z" fill="white"/>
<path d="M1526.95 461.581V228.689H1579.98L1580.86 276.416L1570.7 281.72C1573.64 271.113 1579.39 261.538 1587.93 252.995C1596.48 244.156 1606.64 237.086 1618.42 231.783C1630.21 226.48 1642.29 223.828 1654.66 223.828C1672.34 223.828 1687.07 227.363 1698.85 234.434C1710.93 241.505 1719.92 252.111 1725.81 266.252C1732 280.394 1735.09 298.071 1735.09 319.283V461.581H1680.73V323.26C1680.73 311.475 1679.11 301.753 1675.87 294.093C1672.63 286.139 1667.62 280.394 1660.85 276.858C1654.07 273.028 1645.82 271.261 1636.1 271.555C1628.15 271.555 1620.78 272.881 1614 275.533C1607.52 277.89 1601.78 281.425 1596.77 286.139C1592.06 290.558 1588.23 295.714 1585.28 301.606C1582.63 307.498 1581.3 313.98 1581.3 321.05V461.581H1554.35C1549.04 461.581 1544.03 461.581 1539.32 461.581C1534.9 461.581 1530.78 461.581 1526.95 461.581Z" fill="white"/>
<path d="M1403.66 461.581V228.69H1458.02V461.581H1403.66ZM1430.18 179.195C1419.28 179.195 1410.73 176.543 1404.55 171.24C1398.66 165.642 1395.71 157.835 1395.71 147.818C1395.71 138.391 1398.8 130.731 1404.99 124.838C1411.18 118.946 1419.57 116 1430.18 116C1441.37 116 1449.92 118.799 1455.81 124.396C1462 129.7 1465.09 137.507 1465.09 147.818C1465.09 156.951 1462 164.464 1455.81 170.356C1449.62 176.248 1441.08 179.195 1430.18 179.195Z" fill="white"/>
<path d="M1201.88 466C1182.73 466 1165.35 460.697 1149.74 450.091C1134.12 439.485 1121.6 425.049 1112.17 406.783C1102.75 388.517 1098.03 367.747 1098.03 344.472C1098.03 321.198 1102.75 300.427 1112.17 282.161C1121.6 263.895 1134.42 249.607 1150.62 239.295C1166.82 228.984 1185.09 223.828 1205.42 223.828C1217.2 223.828 1227.96 225.596 1237.68 229.131C1247.4 232.372 1255.94 237.086 1263.31 243.272C1270.68 249.459 1276.72 256.53 1281.43 264.485C1286.44 272.439 1289.83 280.983 1291.59 290.116L1279.66 287.023V228.689H1334.46V461.581H1279.22V405.899L1292.03 403.689C1289.97 411.644 1286.14 419.451 1280.55 427.111C1275.24 434.476 1268.47 441.105 1260.22 446.997C1252.26 452.595 1243.28 457.162 1233.26 460.697C1223.54 464.232 1213.08 466 1201.88 466ZM1216.91 417.831C1229.58 417.831 1240.77 414.737 1250.49 408.55C1260.22 402.364 1267.73 393.82 1273.03 382.919C1278.63 371.724 1281.43 358.908 1281.43 344.472C1281.43 330.331 1278.63 317.81 1273.03 306.909C1267.73 296.008 1260.22 287.464 1250.49 281.278C1240.77 275.091 1229.58 271.997 1216.91 271.997C1204.24 271.997 1193.04 275.091 1183.32 281.278C1173.9 287.464 1166.53 296.008 1161.23 306.909C1155.92 317.81 1153.27 330.331 1153.27 344.472C1153.27 358.908 1155.92 371.724 1161.23 382.919C1166.53 393.82 1173.9 402.364 1183.32 408.55C1193.04 414.737 1204.24 417.831 1216.91 417.831Z" fill="white"/>
<path d="M739.571 461.583V152.239H793.927L906.617 335.636L874.799 335.194L988.814 152.239H1040.52V461.583H983.511V345.358C983.511 318.843 984.1 294.979 985.278 273.767C986.751 252.555 989.108 231.49 992.349 210.572L999.42 229.575L903.523 377.618H874.357L781.554 230.9L787.74 210.572C790.981 230.311 793.191 250.64 794.369 271.557C795.842 292.18 796.579 316.78 796.579 345.358V461.583H739.571Z" fill="white"/>
</svg>
