<svg width="3460" height="581" viewBox="0 0 3460 581" fill="none" xmlns="http://www.w3.org/2000/svg">
<path d="M79.3063 473.861V402.246V356.673V273.812L174 330.631V531.863L245.613 579.804L244.429 285.057L0 143.288L4.14287 428.879L79.3063 473.861Z" fill="#252525"/>
<path d="M261.591 580.999L416.061 488.669L449.204 469.138L509.571 434.81V347.215L334.387 447.831V333.01L509.571 234.761V153.677L259.815 285.069L261.591 580.999Z" fill="#181818"/>
<path d="M246.8 1L1.18739 134.76L75.1671 178.558L246.8 79.7174L426.127 186.844L499.515 147.781L246.8 1Z" fill="#323232" stroke="black"/>
<path d="M3245.46 471C3221.52 471 3200.16 465.697 3181.37 455.091C3162.58 444.182 3147.73 429.333 3136.82 410.545C3125.91 391.757 3120.46 370.394 3120.46 346.454C3120.46 322.515 3125.91 301.151 3136.82 282.363C3147.73 263.576 3162.58 248.879 3181.37 238.272C3200.16 227.363 3221.52 221.909 3245.46 221.909C3269.09 221.909 3290.31 227.363 3309.09 238.272C3327.88 248.879 3342.58 263.576 3353.19 282.363C3364.09 301.151 3369.55 322.515 3369.55 346.454C3369.55 370.394 3364.09 391.757 3353.19 410.545C3342.58 429.333 3327.88 444.182 3309.09 455.091C3290.31 465.697 3269.09 471 3245.46 471ZM3245.46 421.454C3258.49 421.454 3270 418.121 3280 411.454C3290.31 404.788 3298.34 395.848 3304.09 384.636C3310.16 373.424 3313.03 360.697 3312.73 346.454C3313.03 331.909 3310.16 319.03 3304.09 307.818C3298.34 296.606 3290.31 287.818 3280 281.454C3270 274.788 3258.49 271.454 3245.46 271.454C3232.43 271.454 3220.61 274.788 3210 281.454C3199.7 287.818 3191.67 296.757 3185.91 308.273C3180.16 319.485 3177.28 332.212 3177.28 346.454C3177.28 360.697 3180.16 373.424 3185.91 384.636C3191.67 395.848 3199.7 404.788 3210 411.454C3220.61 418.121 3232.43 421.454 3245.46 421.454Z" fill="#252525"/>
<path d="M2954.8 466.455V226.909H3009.8L3010.71 303.273L3002.99 286C3006.32 273.879 3012.08 262.969 3020.26 253.272C3028.44 243.575 3037.83 236 3048.44 230.545C3059.35 224.788 3070.71 221.909 3082.53 221.909C3087.68 221.909 3092.53 222.363 3097.08 223.272C3101.93 224.182 3105.86 225.242 3108.9 226.454L3093.9 287.818C3090.56 286 3086.47 284.485 3081.62 283.272C3076.77 282.06 3071.93 281.454 3067.08 281.454C3059.5 281.454 3052.23 282.969 3045.26 286C3038.59 288.727 3032.68 292.666 3027.53 297.818C3022.38 302.969 3018.29 309.03 3015.26 316C3012.53 322.666 3011.17 330.242 3011.17 338.727V466.455H2954.8Z" fill="#252525"/>
<path d="M2672.28 466.456V148.274H2804.55C2822.73 148.274 2839.1 152.668 2853.64 161.456C2868.49 170.243 2880.31 182.213 2889.1 197.365C2897.89 212.516 2902.28 229.486 2902.28 248.274C2902.28 267.365 2897.89 284.637 2889.1 300.092C2880.31 315.244 2868.49 327.365 2853.64 336.456C2839.1 345.547 2822.73 350.092 2804.55 350.092H2731.37V466.456H2672.28ZM2731.37 295.547H2800.46C2808.04 295.547 2814.86 293.425 2820.92 289.183C2827.28 284.94 2832.28 279.334 2835.92 272.365C2839.86 265.395 2841.83 257.516 2841.83 248.728C2841.83 239.94 2839.86 232.213 2835.92 225.546C2832.28 218.577 2827.28 213.122 2820.92 209.183C2814.86 204.94 2808.04 202.819 2800.46 202.819H2731.37V295.547Z" fill="#252525"/>
<path d="M2420.88 466.455L2352.7 374.182L2339.97 356.909L2241.34 226.909H2310.43L2376.79 316.909L2390.88 336L2488.61 466.455H2420.88ZM2240.88 466.455L2335.88 339.182L2367.7 377.364L2306.79 466.455H2240.88ZM2390.88 354.637L2360.43 316.909L2415.43 226.909H2481.34L2390.88 354.637Z" fill="#151515"/>
<path d="M2113.15 471C2088 471 2065.73 465.697 2046.33 455.09C2027.24 444.484 2012.24 430.09 2001.33 411.909C1990.73 393.424 1985.43 372.363 1985.43 348.727C1985.43 329.939 1988.46 312.818 1994.52 297.363C2000.58 281.908 2008.91 268.575 2019.52 257.363C2030.43 245.848 2043.3 237.06 2058.15 230.999C2073.3 224.636 2089.82 221.454 2107.7 221.454C2123.46 221.454 2138.15 224.484 2151.79 230.545C2165.43 236.605 2177.24 244.939 2187.24 255.545C2197.24 265.848 2204.82 278.272 2209.97 292.817C2215.43 307.06 2218 322.666 2217.7 339.636L2217.24 359.181H2023.15L2012.7 320.999H2170.43L2163.15 328.727V318.727C2162.24 309.333 2159.21 301.151 2154.06 294.181C2148.91 286.908 2142.24 281.302 2134.06 277.363C2126.18 273.121 2117.4 270.999 2107.7 270.999C2092.85 270.999 2080.27 273.878 2069.97 279.636C2059.97 285.393 2052.39 293.727 2047.24 304.636C2042.09 315.242 2039.52 328.575 2039.52 344.636C2039.52 360.09 2042.7 373.575 2049.06 385.09C2055.73 396.606 2064.97 405.545 2076.79 411.909C2088.91 417.969 2103 420.999 2119.06 420.999C2130.27 420.999 2140.58 419.181 2149.97 415.545C2159.36 411.909 2169.52 405.393 2180.43 395.999L2208.15 434.636C2199.97 442.212 2190.58 448.727 2179.97 454.181C2169.67 459.333 2158.76 463.424 2147.24 466.454C2135.73 469.484 2124.36 471 2113.15 471Z" fill="#151515"/>
<path d="M1852.34 466.455V166.001H1908.25V466.455H1852.34ZM1805.07 278.728V226.91H1960.52V278.728H1805.07Z" fill="#151515"/>
<path d="M1549.44 466.455V226.909H1603.99L1604.9 276L1594.44 281.454C1597.47 270.545 1603.38 260.697 1612.17 251.909C1620.96 242.818 1631.41 235.545 1643.53 230.091C1655.65 224.636 1668.08 221.909 1680.8 221.909C1698.99 221.909 1714.14 225.545 1726.26 232.818C1738.68 240.091 1747.93 251 1753.99 265.545C1760.35 280.091 1763.53 298.273 1763.53 320.091V466.455H1707.62V324.182C1707.62 312.06 1705.96 302.06 1702.62 294.182C1699.29 286 1694.14 280.091 1687.17 276.454C1680.2 272.515 1671.71 270.697 1661.71 271C1653.53 271 1645.96 272.363 1638.99 275.091C1632.32 277.515 1626.41 281.151 1621.26 286C1616.41 290.545 1612.47 295.848 1609.44 301.909C1606.71 307.97 1605.35 314.636 1605.35 321.909V466.455H1577.62C1572.17 466.455 1567.02 466.455 1562.17 466.455C1557.62 466.455 1553.38 466.455 1549.44 466.455Z" fill="#151515"/>
<path d="M1422.64 466.455V226.909H1478.55V466.455H1422.64ZM1449.91 176C1438.7 176 1429.91 173.273 1423.55 167.818C1417.49 162.061 1414.46 154.03 1414.46 143.727C1414.46 134.03 1417.64 126.152 1424 120.091C1430.36 114.03 1439 111 1449.91 111C1461.42 111 1470.21 113.879 1476.27 119.636C1482.64 125.091 1485.82 133.121 1485.82 143.727C1485.82 153.121 1482.64 160.849 1476.27 166.909C1469.91 172.97 1461.12 176 1449.91 176Z" fill="#151515"/>
<path d="M1215.09 471C1195.39 471 1177.51 465.545 1161.45 454.636C1145.39 443.727 1132.51 428.879 1122.82 410.091C1113.12 391.303 1108.27 369.939 1108.27 346C1108.27 322.06 1113.12 300.697 1122.82 281.909C1132.51 263.121 1145.7 248.424 1162.36 237.818C1179.03 227.212 1197.82 221.909 1218.73 221.909C1230.85 221.909 1241.91 223.727 1251.91 227.363C1261.91 230.697 1270.7 235.545 1278.27 241.909C1285.85 248.272 1292.06 255.545 1296.91 263.727C1302.06 271.909 1305.55 280.697 1307.36 290.091L1295.09 286.909V226.909H1351.45V466.455H1294.64V409.182L1307.82 406.909C1305.7 415.091 1301.76 423.121 1296 431C1290.55 438.576 1283.58 445.394 1275.09 451.455C1266.91 457.212 1257.67 461.909 1247.36 465.545C1237.36 469.182 1226.61 471 1215.09 471ZM1230.55 421.454C1243.58 421.454 1255.09 418.273 1265.09 411.909C1275.09 405.545 1282.82 396.757 1288.27 385.545C1294.03 374.03 1296.91 360.848 1296.91 346C1296.91 331.454 1294.03 318.576 1288.27 307.363C1282.82 296.151 1275.09 287.363 1265.09 281C1255.09 274.636 1243.58 271.454 1230.55 271.454C1217.51 271.454 1206 274.636 1196 281C1186.3 287.363 1178.73 296.151 1173.27 307.363C1167.82 318.576 1165.09 331.454 1165.09 346C1165.09 360.848 1167.82 374.03 1173.27 385.545C1178.73 396.757 1186.3 405.545 1196 411.909C1206 418.273 1217.51 421.454 1230.55 421.454Z" fill="#151515"/>
<path d="M739.571 466.456V148.274H795.48L911.39 336.91L878.662 336.456L995.935 148.274H1049.12V466.456H990.481V346.91C990.481 319.637 991.087 295.092 992.299 273.274C993.814 251.456 996.238 229.789 999.572 208.274L1006.84 227.819L908.208 380.092H878.208L782.753 229.183L789.117 208.274C792.45 228.577 794.723 249.486 795.935 271.001C797.45 292.213 798.208 317.516 798.208 346.91V466.456H739.571Z" fill="#151515"/>
</svg>
