<svg width="141" height="149" viewBox="0 0 141 149" fill="none" xmlns="http://www.w3.org/2000/svg">
<path d="M132.312 0C135.312 2 135.312 2 136.191 4.69531C139.163 19.6038 140.702 34.1287 140.625 49.3125C140.621 50.4596 140.621 50.4596 140.618 51.6299C140.566 63.2974 140.154 74.6364 137.312 86C137.114 86.8036 136.915 87.6071 136.71 88.4351C132.439 105.114 126.218 120.528 115.312 134C114.677 134.847 114.041 135.694 113.386 136.566C111.231 139.096 109.11 140.812 106.375 142.688C105.541 143.269 104.707 143.85 103.847 144.449C97.172 148.533 91.0111 148.758 83.3122 148C76.9945 145.243 73.0186 139.654 70.152 133.516C63.507 115.627 63.4461 95.0887 62.0827 76.2698C60.7801 43.5241 60.7801 43.5241 48.3122 14C45.2117 11.8038 43.5303 10.9703 39.7497 11.0625C36.7674 12.2095 34.7488 13.9586 32.3122 16C31.6522 16 30.9922 16 30.3122 16C30.0492 16.5595 29.7863 17.1189 29.5153 17.6953C28.1945 20.2253 26.6585 22.5093 25.0622 24.875C17.563 36.6527 13.4419 49.5006 10.3122 63C10.0623 64.0441 10.0623 64.0441 9.80731 65.1094C5.53943 83.9128 7.0404 103.849 7.31219 123C5.99219 123 4.67219 123 3.31219 123C0.947106 115.432 0.162642 108.037 0.0739072 100.117C0.0592164 99.0246 0.0592164 99.0246 0.0442288 97.9099C-0.129919 81.5957 0.00977945 65.8639 4.31219 50C4.5265 49.2051 4.7408 48.4103 4.9616 47.5913C9.64522 30.8919 17.1218 12.6443 32.2966 3.09375C36.5307 0.796143 40.5937 0.416533 45.3122 1C52.9243 3.27206 57.7176 8.69723 61.7184 15.332C70.9604 33.6751 71.6043 56.8082 73.0583 76.8984C73.1215 77.769 73.1847 78.6395 73.2498 79.5364C73.5615 83.8738 73.859 88.2115 74.1347 92.5513C74.6646 100.556 75.3932 108.444 76.7731 116.352C76.8925 117.038 77.0118 117.724 77.1348 118.432C78.168 123.964 79.9683 128.911 82.3122 134C82.6422 134.99 82.9722 135.98 83.3122 137C87.7752 138.488 91.9406 138.982 96.3317 137.164C114.096 126.723 123.08 105.378 128.125 86.25C131.772 71.7888 133.511 57.4131 133.562 42.5C133.569 40.9153 133.569 40.9153 133.576 39.2986C133.513 29.611 132.508 20.1009 131.204 10.5078C130.991 8.88166 130.991 8.88166 130.773 7.22266C130.637 6.2611 130.501 5.29954 130.361 4.30884C130.345 3.54692 130.329 2.785 130.312 2C130.972 1.34 131.632 0.68 132.312 0Z" fill="black"/>
</svg>
