<svg width="2834" height="433" viewBox="0 0 2834 433" fill="none" xmlns="http://www.w3.org/2000/svg">
<path d="M2689.28 425.125V379.125H2735.28V191.125H2689.28V145.125H2833.28V191.125H2787.28V379.125H2833.28V425.125H2689.28Z" fill="#DBDBDB" fill-opacity="0.75"/>
<path d="M2387.18 425.125L2496.38 145.125H2545.18L2653.58 425.125H2599.58L2539.58 265.925C2538.25 262.725 2536.38 257.658 2533.98 250.725C2531.85 243.792 2529.45 236.325 2526.78 228.325C2524.11 220.058 2521.71 212.458 2519.58 205.525C2517.45 198.325 2515.85 193.125 2514.78 189.925L2524.78 189.525C2523.18 194.858 2521.31 200.858 2519.18 207.525C2517.05 214.192 2514.78 221.125 2512.38 228.325C2509.98 235.525 2507.58 242.458 2505.18 249.125C2503.05 255.792 2501.05 261.792 2499.18 267.125L2439.18 425.125H2387.18ZM2436.78 361.125L2454.78 315.925H2582.38L2601.58 361.125H2436.78Z" fill="#DBDBDB" fill-opacity="0.75"/>
<path d="M2100.71 212.824L2101.16 213.434L2150.36 280.159L2191.07 213.542L2191.51 212.824H2253.25L2251.58 215.191L2178.58 318.269L2257.95 424.225L2259.75 426.624H2196.4L2195.95 426.016L2145.05 357.136L2097.99 425.971L2097.55 426.624H2035.76L2037.55 424.227L2116.39 318.603L2037.96 215.23L2036.13 212.824H2100.71Z" fill="#181818" stroke="#181818" stroke-width="3"/>
<path d="M1921.55 208.023C1935.61 208.024 1948.76 210.729 1960.96 216.152C1973.13 221.562 1983.69 229.004 1992.63 238.479L1993.46 239.35C2002 248.4 2008.5 259.22 2012.95 271.787L2013.4 272.984C2017.97 285.391 2020.11 298.918 2019.85 313.55V313.559L2019.45 330.759L2019.42 332.224H1864.21C1865.49 339.757 1867.84 346.602 1871.25 352.771C1876.97 362.657 1884.9 370.325 1895.05 375.794C1905.46 380.997 1917.62 383.623 1931.55 383.623C1941.25 383.623 1950.13 382.051 1958.21 378.925C1966.26 375.807 1975.05 370.185 1984.57 361.986L1985.81 360.917L1986.77 362.249L2011.17 396.249L2011.94 397.324L2010.97 398.224C2003.66 404.989 1995.28 410.799 1985.84 415.657L1985.83 415.661L1985.82 415.665C1976.66 420.246 1966.96 423.882 1956.73 426.574C1946.48 429.272 1936.35 430.623 1926.35 430.623C1904 430.623 1884.15 425.909 1866.83 416.439L1866.82 416.435C1849.8 406.978 1836.4 394.128 1826.66 377.896L1826.66 377.883L1826.65 377.87C1817.17 361.352 1812.45 342.556 1812.45 321.523C1812.45 304.827 1815.14 289.571 1820.55 275.775C1825.95 262.01 1833.38 250.109 1842.86 240.093L1842.86 240.092C1852.61 229.806 1864.11 221.954 1877.37 216.541V216.54C1890.9 210.856 1905.64 208.023 1921.55 208.023ZM1921.55 254.623C1908.68 254.623 1897.87 257.12 1889.08 262.033C1880.57 266.94 1874.11 274.034 1869.71 283.364L1869.7 283.371L1869.7 283.379C1867.91 287.06 1866.48 291.14 1865.41 295.623H1968.85V295.201C1968.07 287.208 1965.49 280.294 1961.14 274.415L1961.13 274.403L1961.13 274.391C1956.74 268.202 1951.07 263.434 1944.1 260.075L1944.07 260.061L1944.04 260.044C1937.34 256.438 1929.86 254.623 1921.55 254.623Z" fill="#181818" stroke="#181818" stroke-width="3"/>
<path d="M1747.53 159.227V212.826H1793.53V261.427H1747.53V426.627H1695.33V261.427H1653.73V212.826H1695.33V159.227H1747.53Z" fill="#181818" stroke="#181818" stroke-width="3"/>
<path d="M1545.88 208.426C1562.08 208.426 1575.7 211.665 1586.66 218.239H1586.66C1597.88 224.816 1606.21 234.671 1611.66 247.725L1612.19 248.957C1617.54 261.788 1620.18 277.596 1620.18 296.326V426.626H1567.98V299.926C1567.98 289.383 1566.53 280.799 1563.7 274.11L1563.7 274.101L1563.7 274.092C1560.88 267.177 1556.57 262.271 1550.79 259.256L1550.77 259.244L1550.75 259.231C1544.9 255.93 1537.72 254.365 1529.13 254.625L1529.11 254.626H1529.08C1522.05 254.626 1515.57 255.797 1509.63 258.123L1509.61 258.129L1509.6 258.136C1503.92 260.2 1498.9 263.292 1494.51 267.418L1494.51 267.42C1490.38 271.289 1487.03 275.803 1484.44 280.969C1482.14 286.084 1480.98 291.729 1480.98 297.926V426.626H1428.78V212.826H1479.76L1479.78 214.298L1480.26 239.806C1481.56 238.257 1482.95 236.743 1484.42 235.265C1492.29 227.13 1501.65 220.628 1512.47 215.758C1523.32 210.875 1534.46 208.426 1545.88 208.426Z" fill="#181818" stroke="#181818" stroke-width="3"/>
<path d="M1369.4 212.824V426.624H1317.2V212.824H1369.4ZM1342.7 110.824C1353.04 110.824 1361.19 113.407 1366.89 118.798C1372.89 123.955 1375.8 131.486 1375.8 141.124C1375.8 149.77 1372.85 156.973 1366.93 162.61C1360.98 168.277 1352.84 171.024 1342.7 171.024C1332.59 171.024 1324.47 168.565 1318.52 163.463L1318.49 163.438L1318.46 163.412C1312.77 157.999 1310 150.5 1310 141.124C1310 132.227 1312.93 124.885 1318.86 119.238C1324.8 113.579 1332.81 110.824 1342.7 110.824Z" fill="#181818" stroke="#181818" stroke-width="3"/>
<path d="M1139.26 208.426C1150.06 208.426 1159.97 210.046 1168.94 213.308C1177.91 216.297 1185.8 220.651 1192.62 226.377C1197.31 230.318 1201.43 234.653 1204.96 239.38V212.826H1257.56V426.626H1204.56V399.764C1200.37 404.618 1195.42 409.079 1189.73 413.146L1189.72 413.152C1182.4 418.302 1174.15 422.494 1164.97 425.734L1164.97 425.735C1155.99 429 1146.35 430.626 1136.06 430.626C1118.43 430.626 1102.4 425.738 1088.01 415.967C1073.65 406.214 1062.16 392.949 1053.52 376.214C1044.87 359.441 1040.56 340.4 1040.56 319.126C1040.56 297.852 1044.87 278.811 1053.52 262.038C1062.17 245.286 1073.94 232.146 1088.85 222.66C1103.77 213.165 1120.59 208.426 1139.26 208.426ZM1149.66 255.025C1138.45 255.025 1128.61 257.756 1120.08 263.18L1119.31 263.696C1111.38 269.093 1105.15 276.441 1100.6 285.782C1095.92 295.413 1093.56 306.516 1093.56 319.126C1093.56 332.007 1095.92 343.381 1100.61 353.283C1105.3 362.918 1111.79 370.431 1120.08 375.869C1128.61 381.295 1138.45 384.025 1149.66 384.025C1160.87 384.025 1170.71 381.292 1179.25 375.86C1187.8 370.417 1194.42 362.9 1199.11 353.27L1199.11 353.263L1199.11 353.255C1204.06 343.36 1206.56 331.995 1206.56 319.126C1206.56 306.527 1204.06 295.435 1199.12 285.811L1199.11 285.797L1199.11 285.782C1194.42 276.151 1187.8 268.635 1179.25 263.191C1170.71 257.76 1160.87 255.025 1149.66 255.025Z" fill="#181818" stroke="#181818" stroke-width="3"/>
<path d="M767.639 143.625L768.078 144.34L854.386 284.803L941.927 144.332L942.368 143.625H991.5V426.625H936.9V319.925C936.9 295.904 937.434 274.275 938.502 255.042L938.503 255.031V255.021C938.904 249.257 939.377 243.505 939.921 237.765L867.259 349.94L866.816 350.625H838.774L838.333 349.927L767.66 238.196C768.07 243.108 768.417 248.056 768.698 253.041C770.033 271.749 770.7 294.045 770.7 319.925V426.625H716.1V143.625H767.639Z" fill="#181818" stroke="#181818" stroke-width="3"/>
<path d="M183.5 190.5L201 268L271.5 404.5L461.5 410L183.5 190.5Z" fill="url(#paint0_linear_1086_136)" fill-opacity="0.2"/>
<path d="M356 291.5L421.5 37L183 155L176.5 163.5L356 291.5Z" fill="url(#paint1_linear_1086_136)" fill-opacity="0.2"/>
<path d="M449.086 5.66708C453.727 9.71492 453.727 9.71492 454.964 12.7204C455.304 19.4341 454.497 25.032 452.501 31.4643C452.239 32.3448 451.977 33.2252 451.707 34.1324C450.848 37.0125 449.97 39.8867 449.091 42.7612C448.487 44.7712 447.883 46.7816 447.281 48.7922C445.698 54.063 444.1 59.3288 442.499 64.5939C441.191 68.9037 439.895 73.2169 438.599 77.5303C437.055 82.6688 435.506 87.8059 433.956 92.9425C433.66 93.9242 433.363 94.906 433.058 95.9175C432.222 98.6842 431.383 101.45 430.542 104.215C430.293 105.038 430.045 105.862 429.789 106.71C428.062 112.371 428.062 112.371 426.751 114.993C427.612 114.911 428.473 114.829 429.361 114.744C450.536 112.738 471.726 110.912 492.929 109.215C495.566 109.003 498.204 108.789 500.841 108.573C539.606 105.402 539.606 105.402 544.653 108.329C547.772 111.383 548.09 114.64 548.296 118.828C548.212 125.09 545.824 128.04 541.587 132.406C540.951 133.104 540.314 133.803 539.657 134.522C537.703 136.656 535.717 138.756 533.726 140.855C532.027 142.691 530.337 144.534 528.647 146.377C527.574 147.547 526.497 148.714 525.417 149.878C522.008 153.567 518.793 157.362 515.652 161.28C510.232 168.017 504.364 174.277 498.455 180.581C493.309 186.072 488.407 191.754 483.531 197.484C476.676 205.528 469.712 213.434 462.541 221.197C457.65 226.509 452.934 231.962 448.255 237.462C441.972 244.838 435.616 252.105 429.02 259.204C425.614 262.895 422.397 266.688 419.257 270.607C413.844 277.334 407.983 283.587 402.083 289.884C394.963 297.482 388.389 305.377 382.08 313.661C382.764 313.984 383.447 314.306 384.151 314.639C386.721 315.98 388.931 317.459 391.259 319.181C392.125 319.819 392.99 320.457 393.882 321.114C394.812 321.807 395.742 322.499 396.701 323.212C397.681 323.937 398.66 324.662 399.669 325.409C408.065 331.642 416.37 337.992 424.67 344.35C431.169 349.313 437.733 354.164 444.384 358.92C453.168 365.201 461.769 371.698 470.336 378.272C478.433 384.474 486.621 390.542 494.887 396.519C506.293 404.829 506.293 404.829 507.354 409.395C507.342 417.519 507.342 417.519 504.117 421.297C498.037 424.405 492.061 424.335 485.348 424.328C484.388 424.331 483.427 424.335 482.438 424.338C479.224 424.349 476.01 424.35 472.795 424.352C470.489 424.358 468.184 424.363 465.878 424.37C459.616 424.385 453.355 424.393 447.094 424.398C443.182 424.401 439.271 424.406 435.359 424.412C423.122 424.428 410.885 424.439 398.648 424.444C384.52 424.449 370.391 424.469 356.263 424.503C345.342 424.529 334.421 424.541 323.5 424.542C316.977 424.544 310.454 424.551 303.93 424.572C297.797 424.591 291.663 424.593 285.529 424.583C283.278 424.582 281.027 424.587 278.776 424.599C275.703 424.614 272.631 424.607 269.557 424.595C268.222 424.609 268.222 424.609 266.86 424.623C261.298 424.571 257.478 423.609 252.77 420.636C250.46 417.477 250.46 417.477 248.067 413.583C245.575 410.382 242.957 407.288 240.353 404.178C235.196 397.973 230.096 391.74 225.144 385.37C220.349 379.208 215.43 373.161 210.45 367.149C204.933 360.488 199.52 353.764 194.208 346.939C189.919 341.45 185.505 336.071 181.061 330.707C175.544 324.046 170.131 317.322 164.819 310.497C160.53 305.008 156.116 299.629 151.672 294.264C146.528 288.051 141.444 281.801 136.464 275.456C135.932 274.787 135.4 274.119 134.852 273.43C132.54 270.506 130.361 267.579 128.34 264.444C126.469 261.604 124.855 259.453 122.284 257.235C119.669 256.669 119.669 256.669 116.753 256.888C115.602 256.927 114.451 256.966 113.265 257.006C111.974 257.081 110.683 257.157 109.353 257.235C107.229 257.356 107.229 257.356 105.062 257.479C101.013 257.737 96.9686 258.02 92.9234 258.323C90.223 258.525 87.5221 258.721 84.8212 258.916C79.0872 259.33 73.3539 259.751 67.6206 260.174C60.9674 260.664 54.314 261.151 47.66 261.63C45.0222 261.822 42.3848 262.019 39.7473 262.216C13.4862 264.145 13.4862 264.145 8.69615 260.688C5.28137 256.464 4.54469 254.433 4.72867 249.006C7.28928 241.934 11.6308 236.544 16.2617 230.665C20.3365 225.485 24.1744 220.173 27.9458 214.768C33.822 206.357 39.8583 198.078 45.9957 189.856C49.9289 184.564 53.6137 179.206 57.0756 173.592C59.0251 171.142 60.6806 170.332 63.5061 169.068C64.282 168.293 65.0579 167.517 65.8572 166.717C68.6763 165.786 71.469 164.956 74.3295 164.173C86.0029 160.856 97.5274 157.131 109.046 153.314C111.361 152.55 113.678 151.791 115.996 151.038C128.226 147.065 139.977 143.019 151.363 136.994C155.434 134.854 159.573 132.91 163.763 131.019C164.493 130.689 165.223 130.358 165.976 130.018C167.493 129.332 169.011 128.648 170.53 127.965C174.755 126.063 178.975 124.151 183.196 122.239C184.078 121.841 184.959 121.442 185.867 121.031C195.844 116.513 205.792 111.932 215.74 107.352C229.439 101.047 243.151 94.7732 256.884 88.5433C270.567 82.3357 284.231 76.0869 297.881 69.808C316.327 61.3236 334.787 52.8706 353.255 44.4354C360.131 41.295 367.004 38.1517 373.877 35.0057C378.159 33.046 382.442 31.0892 386.729 29.139C394.591 25.5599 402.44 21.9603 410.251 18.2709C413.815 16.59 417.385 14.9244 420.957 13.2603C422.646 12.4682 424.332 11.6688 426.014 10.8617C428.339 9.74666 430.675 8.65736 433.014 7.57276C434.335 6.94758 435.655 6.3224 437.015 5.67828C441.595 4.26388 444.463 4.50092 449.086 5.66708ZM417.319 44.6439C416.472 45.0363 415.625 45.4286 414.753 45.8329C412.911 46.6863 411.07 47.5417 409.23 48.3986C404.279 50.7028 399.322 52.9918 394.364 55.2789C393.342 55.7501 392.321 56.2213 391.269 56.7067C380.977 61.4443 370.624 66.04 360.259 70.6162C346.548 76.6741 332.916 82.8655 319.341 89.2232C308.452 94.3048 297.484 99.1912 286.493 104.046C270.315 111.193 254.229 118.523 238.184 125.965C223.976 132.554 209.73 139.046 195.409 145.386C187.778 148.776 180.262 152.324 172.832 156.137C177.696 161.341 183.087 165.417 188.849 169.583C190.864 171.054 192.878 172.525 194.892 173.996C195.917 174.741 196.942 175.487 197.999 176.256C202.698 179.675 207.384 183.112 212.066 186.555C212.98 187.227 213.894 187.899 214.836 188.591C222.907 194.544 230.878 200.626 238.842 206.721C246.631 212.671 254.492 218.513 262.394 224.31C268.998 229.155 275.56 234.053 282.104 238.979C288.042 243.443 294.022 247.845 300.012 252.239C309.284 259.042 318.447 265.978 327.558 272.996C338.125 282.617 338.125 282.617 350.34 287.799C363.108 247.821 375.813 207.824 388.295 167.756C393.83 149.989 399.393 132.232 405.031 114.497C405.299 113.653 405.568 112.808 405.844 111.938C408.439 103.776 411.037 95.6151 413.642 87.4563C418.577 71.9971 423.471 56.5385 427.927 40.9336C424.053 40.9336 420.773 43.0242 417.319 44.6439ZM498.013 133.129C497.257 133.182 496.502 133.236 495.723 133.291C487.831 133.853 479.939 134.43 472.048 135.009C468.309 135.282 464.569 135.551 460.829 135.816C456.304 136.136 451.78 136.464 447.257 136.799C445.538 136.925 443.819 137.047 442.1 137.167C439.685 137.336 437.272 137.515 434.859 137.698C433.489 137.797 432.119 137.896 430.707 137.998C426.315 138.56 422.622 139.143 418.522 140.855C416.454 144.108 416.454 144.108 415.438 148.254C415.207 149.016 414.976 149.779 414.738 150.565C413.978 153.103 413.268 155.652 412.557 158.204C412.03 159.999 411.499 161.794 410.966 163.587C409.549 168.382 408.175 173.188 406.808 177.997C405.397 182.937 403.949 187.866 402.503 192.796C400.507 199.612 398.523 206.43 396.554 213.254C393.718 223.084 390.807 232.887 387.793 242.664C387.448 243.787 387.103 244.909 386.747 246.066C385.51 250.092 384.271 254.117 383.016 258.138C382.205 260.743 381.408 263.353 380.615 265.964C380.183 267.363 379.75 268.762 379.305 270.204C378.582 273.56 378.517 275.236 379.729 278.395C391.251 266.187 391.251 266.187 402.413 253.653C404.996 250.691 407.645 247.794 410.293 244.891C413.638 241.225 416.961 237.547 420.212 233.797C424.244 229.156 428.407 224.638 432.571 220.116C436.256 216.107 439.867 212.045 443.434 207.93C447.062 203.801 450.787 199.759 454.491 195.697C456.809 193.138 459.095 190.559 461.356 187.951C464.837 183.943 468.414 180.027 472.01 176.122C476.293 171.468 480.52 166.774 484.665 161.997C487.034 159.286 489.438 156.608 491.847 153.933C492.729 152.953 493.611 151.972 494.52 150.962C496.426 148.856 498.343 146.76 500.269 144.671C501.223 143.63 502.178 142.589 503.162 141.517C504.035 140.572 504.907 139.628 505.807 138.656C508.087 136.187 508.087 136.187 509.039 132.626C505.336 132.626 501.707 132.866 498.013 133.129ZM135.092 170.338C134.127 170.644 133.163 170.95 132.169 171.265C131.133 171.606 130.097 171.946 129.029 172.297C127.432 172.808 127.432 172.808 125.803 173.33C122.398 174.422 118.998 175.529 115.598 176.636C113.292 177.379 110.986 178.12 108.68 178.861C103.023 180.68 97.37 182.512 91.7193 184.351C93.8224 188.814 96.6467 192.266 99.8747 195.959C104.468 201.297 108.928 206.707 113.247 212.27C120.173 221.175 127.356 229.861 134.549 238.551C144.536 250.628 154.381 262.822 164.259 274.988C173.525 286.403 173.525 286.403 182.824 297.791C192.887 310.077 202.913 322.394 212.801 334.821C214.297 330.332 213.411 329.324 211.451 325.104C210.566 323.17 210.566 323.17 209.663 321.197C209.339 320.5 209.014 319.803 208.679 319.085C206.891 315.247 205.142 311.389 203.387 307.535C203.009 306.708 202.631 305.88 202.241 305.027C197.704 295.076 193.352 285.046 188.996 275.015C188.15 273.07 187.304 271.125 186.458 269.18C184.74 265.228 183.022 261.276 181.304 257.324C178.718 251.373 176.125 245.425 173.53 239.477C173.106 238.504 172.681 237.53 172.244 236.527C170.14 231.704 168.035 226.881 165.926 222.06C161.97 213.004 158.047 203.936 154.198 194.834C153.149 192.365 152.099 189.897 151.048 187.429C150.079 185.141 149.124 182.847 148.17 180.553C147.595 179.203 147.02 177.853 146.428 176.462C145.934 175.282 145.439 174.103 144.93 172.887C142.373 168.34 139.505 168.912 135.092 170.338ZM178.71 193.755C182.849 204.907 187.443 215.806 192.228 226.691C193.519 229.629 194.806 232.568 196.092 235.507C197.471 238.661 198.851 241.814 200.232 244.966C205.72 257.495 211.17 270.039 216.621 282.582C217.635 284.914 218.648 287.245 219.662 289.576C225.024 301.911 230.379 314.249 235.724 326.592C237.201 330.001 238.679 333.411 240.157 336.82C242.197 341.528 244.236 346.237 246.274 350.946C248.972 357.179 251.673 363.41 254.375 369.641C255.456 372.134 256.537 374.629 257.616 377.123C259.126 380.616 260.641 384.106 262.156 387.597C262.615 388.661 263.075 389.726 263.549 390.823C263.97 391.793 264.392 392.763 264.827 393.763C265.196 394.615 265.565 395.466 265.945 396.344C266.74 398.295 266.74 398.295 268.052 399.476C270.462 399.59 272.876 399.619 275.289 399.618C276.435 399.619 276.435 399.619 277.605 399.621C280.184 399.623 282.764 399.616 285.343 399.61C287.185 399.609 289.026 399.609 290.868 399.61C295.883 399.611 300.899 399.604 305.914 399.595C311.149 399.588 316.385 399.587 321.62 399.586C331.542 399.582 341.463 399.573 351.384 399.561C362.676 399.548 373.968 399.541 385.26 399.535C408.494 399.523 431.729 399.502 454.964 399.476C451.35 395.824 447.785 392.432 443.691 389.323C442.681 388.554 441.671 387.785 440.63 386.993C439.566 386.19 438.501 385.388 437.404 384.561C436.296 383.721 435.187 382.881 434.045 382.015C427.526 377.091 420.952 372.271 414.267 367.574C408.021 363.157 401.962 358.505 395.893 353.85C388.234 347.977 380.528 342.196 372.676 336.584C363.844 330.272 355.21 323.726 346.598 317.119C340.083 312.134 333.502 307.264 326.829 302.493C318.033 296.203 309.423 289.692 300.839 283.116C291.306 275.822 281.659 268.693 271.976 261.6C258.654 251.839 245.381 242.017 232.183 232.09C224.574 226.373 216.917 220.726 209.24 215.103C201.809 209.643 194.489 204.046 187.236 198.351C186.458 197.747 185.679 197.142 184.877 196.519C184.194 195.984 183.512 195.448 182.808 194.897C181.081 193.541 181.081 193.541 178.71 193.755ZM70.5594 194.931C68.9191 196.61 68.9191 196.61 67.267 198.857C66.2808 200.137 66.2808 200.137 65.2746 201.443C64.5698 202.373 63.865 203.303 63.1388 204.261C62.0543 205.675 62.0543 205.675 60.9478 207.117C58.6591 210.103 56.3804 213.097 54.1017 216.09C52.6071 218.043 51.1116 219.994 49.6154 221.945C46.0094 226.649 42.4122 231.36 38.8196 236.075C42.3751 237.26 44.3157 237.31 47.997 237.097C49.7151 237.003 49.715 237.003 51.4678 236.906C53.3194 236.792 53.3194 236.792 55.2084 236.676C56.4764 236.602 57.7444 236.528 59.0508 236.451C61.7318 236.291 64.4127 236.128 67.0933 235.961C71.2076 235.708 75.3226 235.474 79.4381 235.241C82.0395 235.084 84.6408 234.926 87.2421 234.766C88.4789 234.697 89.7157 234.629 90.9899 234.558C92.1316 234.484 93.2733 234.409 94.4496 234.333C95.457 234.272 96.4644 234.211 97.5024 234.148C100.202 233.921 100.202 233.921 102.299 231.373C101.868 230.853 101.438 230.334 100.994 229.799C98.9532 227.338 96.9155 224.874 94.8786 222.409C94.1372 221.513 93.3958 220.617 92.632 219.693C87.2445 213.156 81.9801 206.535 76.8812 199.77C75.6104 198.115 74.2672 196.516 72.9105 194.931C72.1347 194.931 71.3588 194.931 70.5594 194.931Z" fill="url(#paint2_linear_1086_136)"/>
<path d="M443.106 0.00237963C445.215 0.034286 447.229 0.386581 449.33 0.88519L450.236 1.10675L451.329 1.38227L452.177 2.12273C454.338 4.00796 455.876 5.32763 456.914 6.57352C458.18 8.09303 458.73 9.51562 459.312 10.929L459.62 11.6752L459.66 12.4823C460.029 19.7809 459.138 25.9177 457.007 32.803L457.008 32.8041C456.746 33.6845 456.484 34.565 456.215 35.4721L456.213 35.4766C455.349 38.3736 454.466 41.2621 453.588 44.1348C452.986 46.1365 452.385 48.1389 451.786 50.1412L451.785 50.1435C450.2 55.4214 448.599 60.6922 446.997 65.9571L446.999 65.9583C446.346 68.1095 445.696 70.262 445.047 72.4158L438.457 94.3C438.16 95.2842 437.866 96.2607 437.56 97.2745V97.2768C436.723 100.047 435.882 102.815 435.041 105.581C434.917 105.99 434.793 106.4 434.669 106.812C434.544 107.227 434.418 107.644 434.29 108.068L434.287 108.081C434.118 108.633 433.96 109.137 433.818 109.602C453.388 107.773 472.966 106.095 492.552 104.528L500.456 103.886C519.711 102.311 529.657 101.493 535.364 101.461C538.261 101.445 540.448 101.621 542.378 102.152C543.863 102.561 545.043 103.146 546.053 103.71L547.012 104.261L547.522 104.556L547.943 104.968C552.466 109.397 552.784 114.352 552.993 118.596L553 118.743L552.998 118.89C552.946 122.681 552.177 125.761 550.618 128.594C549.158 131.246 547.114 133.457 545.027 135.61C544.401 136.296 543.776 136.983 543.132 137.69L543.125 137.697C541.153 139.849 539.155 141.962 537.176 144.047C535.486 145.874 533.802 147.71 532.113 149.553L532.112 149.555C531.035 150.73 529.953 151.9 528.869 153.068C525.551 156.659 522.409 160.367 519.321 164.22L519.315 164.227C513.766 171.124 507.774 177.513 501.885 183.796C496.821 189.199 491.98 194.809 487.112 200.53L487.11 200.532C480.223 208.614 473.219 216.564 465.999 224.38L466 224.381C461.172 229.626 456.502 235.024 451.836 240.508L451.835 240.51C445.527 247.915 439.123 255.238 432.465 262.404C429.151 265.995 426.01 269.699 422.926 273.546L422.92 273.553C417.378 280.442 411.394 286.823 405.514 293.098C399.784 299.213 394.405 305.533 389.224 312.113C390.908 313.143 392.478 314.233 394.055 315.399L396.673 317.328L396.681 317.335L396.689 317.341C397.616 318.031 398.543 318.721 399.498 319.432C400.477 320.156 401.457 320.882 402.467 321.629L402.472 321.633C410.898 327.888 419.226 334.256 427.524 340.612C433.983 345.545 440.508 350.366 447.119 355.094C455.965 361.42 464.613 367.954 473.195 374.538C480.245 379.939 487.369 385.239 494.558 390.47L497.642 392.707L497.648 392.713L497.655 392.717C503.144 396.716 506.458 399.107 508.378 401.09C509.493 402.241 510.303 403.402 510.891 404.789C511.41 406.011 511.695 407.301 511.934 408.33L512.057 408.858V409.401C512.051 413.115 512.09 415.959 511.478 418.21C510.745 420.903 509.139 422.655 507.693 424.349L507.087 425.059L506.257 425.484C499.013 429.186 491.883 429.036 485.36 429.029C484.402 429.032 483.443 429.036 482.456 429.04H482.453C479.234 429.05 476.016 429.051 472.805 429.053C470.501 429.058 468.196 429.065 465.891 429.071C459.626 429.086 453.36 429.094 447.097 429.1C443.187 429.103 439.277 429.107 435.366 429.112C423.128 429.128 410.888 429.14 398.649 429.144C384.525 429.15 370.4 429.171 356.275 429.205C345.35 429.231 334.424 429.242 323.5 429.243C320.24 429.244 316.981 429.247 313.722 429.251L303.945 429.273C297.804 429.292 291.664 429.295 285.525 429.285C283.283 429.284 281.042 429.289 278.801 429.301C275.725 429.316 272.652 429.308 269.593 429.296C268.272 429.31 268.267 429.31 266.91 429.325H266.816C260.492 429.266 255.796 428.107 250.259 424.611L249.502 424.133L248.973 423.41C246.626 420.2 246.513 420.032 244.206 416.278C241.823 413.228 239.323 410.27 236.748 407.197L236.743 407.19L236.736 407.183C231.567 400.963 226.43 394.684 221.433 388.255C216.679 382.146 211.792 376.14 206.828 370.147C201.286 363.455 195.844 356.697 190.503 349.834L188.905 347.8C185.161 343.065 181.323 338.393 177.439 333.705C171.897 327.013 166.455 320.255 161.114 313.392L159.516 311.358C156.842 307.976 154.12 304.626 151.367 301.279L148.051 297.263C142.891 291.03 137.778 284.746 132.765 278.358C132.24 277.698 131.714 277.038 131.173 276.358L131.164 276.346C128.807 273.366 126.538 270.321 124.413 267.029C122.901 264.734 121.703 263.127 120.073 261.576C119.653 261.492 119.494 261.469 119.337 261.459C119.045 261.441 118.696 261.456 117.105 261.576L117.009 261.583L116.911 261.586C115.774 261.625 114.637 261.663 113.466 261.702C112.2 261.776 110.932 261.852 109.627 261.928H109.62C107.506 262.049 107.496 262.049 105.359 262.171C101.331 262.427 97.3041 262.709 93.274 263.011C90.5674 263.213 87.8619 263.41 85.16 263.604C79.4298 264.018 73.6993 264.44 67.9664 264.863C61.3124 265.353 54.6563 265.839 47.9993 266.318L48.0005 266.319C45.3687 266.511 42.7364 266.707 40.0988 266.905H40.0919C27.161 267.854 20.1919 268.376 15.9392 268.167C13.6736 268.055 11.813 267.731 10.0523 266.99C8.38652 266.289 7.05242 265.299 5.94472 264.5L5.43501 264.132L5.04009 263.643C3.24723 261.426 1.77886 259.34 0.915339 256.823C0.0464128 254.29 -0.0689649 251.738 0.0290851 248.846L0.054341 248.103L0.3069 247.404C3.17089 239.494 8.03133 233.513 12.5675 227.755C16.5649 222.672 20.3463 217.441 24.09 212.077L24.0911 212.074C30.0029 203.613 36.0692 195.292 42.2272 187.042C46.0899 181.844 49.6949 176.602 53.0735 171.123L53.2204 170.883L53.396 170.663C55.8308 167.603 58.1371 166.346 60.7846 165.137C60.7866 165.135 60.783 165.14 60.7903 165.133L60.8087 165.114C60.81 165.113 60.8119 165.112 60.8133 165.111L60.9235 165.001C60.9248 164.999 60.9256 164.997 60.9269 164.996L60.9636 164.959C60.9714 164.952 60.9654 164.959 60.9728 164.951L61.1106 164.813C61.1119 164.812 61.1127 164.81 61.114 164.809L61.1691 164.754C61.1705 164.752 61.1724 164.752 61.1737 164.75L61.4768 164.447C61.4805 164.444 61.481 164.442 61.4848 164.438L61.5767 164.346C61.593 164.33 61.5707 164.353 61.587 164.337L61.8533 164.071C61.8657 164.058 61.8502 164.073 61.8625 164.06L61.9085 164.014C61.91 164.013 61.9126 164.011 61.9142 164.01L62.0198 163.904C62.028 163.896 62.0208 163.902 62.029 163.894L62.0565 163.866C62.0634 163.86 62.06 163.864 62.0669 163.857L62.1403 163.784C62.1419 163.782 62.1434 163.78 62.1449 163.778L62.1679 163.755C62.1694 163.753 62.1721 163.752 62.1736 163.75L62.2333 163.691C62.254 163.67 62.2218 163.701 62.2425 163.68L62.2609 163.662C62.2624 163.66 62.2651 163.659 62.2666 163.657L62.3217 163.602C62.3233 163.601 62.3248 163.598 62.3263 163.597L62.3401 163.583C62.3417 163.581 62.3443 163.58 62.3458 163.578L62.3918 163.532C62.4125 163.512 62.3802 163.543 62.4009 163.522L62.4101 163.513C62.4117 163.511 62.4143 163.51 62.4159 163.508L62.4572 163.467C62.4499 163.474 62.4609 163.462 62.4664 163.457C62.4787 163.444 62.4633 163.46 62.4756 163.447C62.4771 163.446 62.4797 163.444 62.4813 163.443L62.5226 163.401C62.531 163.393 62.5235 163.399 62.5318 163.391L63.3216 162.602L64.3824 162.252C67.2813 161.294 70.1436 160.443 73.059 159.645C84.6267 156.357 96.0686 152.66 107.568 148.851L107.571 148.848C109.893 148.081 112.217 147.32 114.543 146.565C126.757 142.597 138.169 138.656 149.164 132.837L149.175 132.831C153.365 130.629 157.601 128.64 161.829 126.732C162.557 126.402 163.286 126.073 164.037 125.733L164.04 125.731C165.559 125.045 167.08 124.36 168.6 123.676L181.257 117.955C182.138 117.556 183.02 117.156 183.928 116.746C193.889 112.235 203.823 107.661 213.774 103.08L224.055 98.3548C234.34 93.6359 244.634 88.9363 254.941 84.2608L265.194 79.5999C275.443 74.932 285.683 70.2417 295.916 65.5347C314.367 57.0481 332.831 48.5935 351.301 40.157C358.175 37.0172 365.049 33.8751 371.921 30.7297C376.204 28.7691 380.491 26.8097 384.782 24.8577C392.637 21.2814 400.463 17.6932 408.243 14.0183L408.246 14.0171C411.816 12.3328 415.392 10.664 418.96 9.00153C420.637 8.21518 422.311 7.42259 423.98 6.62173C426.334 5.49299 428.693 4.39297 431.037 3.30632C432.345 2.68658 433.655 2.06671 435.003 1.42819L435.306 1.28354L435.628 1.18482C438.279 0.365847 440.64 -0.0348872 443.106 0.00237963ZM449.087 5.6666C444.464 4.50048 441.595 4.2627 437.016 5.67693L433.015 7.57227C430.675 8.65683 428.339 9.74626 426.014 10.8613L423.488 12.0655C422.645 12.4652 421.801 12.8634 420.956 13.2595L415.601 15.7586C413.816 16.5932 412.033 17.43 410.251 18.2705C402.44 21.9599 394.59 25.5594 386.729 29.1386L373.877 35.0048C367.004 38.1508 360.13 41.2941 353.255 44.4345C334.787 52.8697 316.327 61.3231 297.882 69.8075L287.64 74.5109C277.397 79.2081 267.146 83.8872 256.884 88.5428L246.588 93.2232C236.296 97.9116 226.014 102.623 215.74 107.352C205.792 111.932 195.844 116.512 185.867 121.03L183.197 122.239C178.976 124.15 174.755 126.063 170.53 127.964L165.976 130.017C165.223 130.357 164.493 130.688 163.763 131.019L160.63 132.449C157.508 133.894 154.416 135.388 151.363 136.993C139.976 143.018 128.226 147.065 115.996 151.038L112.52 152.171C111.362 152.55 110.204 152.932 109.046 153.314C97.5276 157.13 86.0032 160.855 74.3298 164.173L72.1957 164.769C70.0712 165.376 67.9719 166.018 65.8576 166.717L63.5065 169.068C60.6809 170.332 59.0248 171.141 57.0754 173.591L55.7667 175.684C52.6884 180.543 49.4375 185.224 45.9961 189.855L43.6989 192.941C38.3515 200.148 33.0878 207.408 27.9461 214.767C24.1747 220.172 20.3365 225.484 16.2618 230.665L14.5421 232.851C10.5737 237.917 6.96954 242.817 4.72899 249.005L4.70488 249.985C4.64679 254.695 5.49521 256.728 8.69647 260.687C12.8874 263.712 13.4119 264.09 31.0698 262.846L39.7475 262.215C42.3847 262.018 45.0219 261.821 47.6595 261.63L67.6209 260.173C73.3541 259.751 79.0875 259.329 84.8213 258.915L92.9239 258.322C96.9689 258.02 101.013 257.736 105.062 257.479L109.353 257.234C110.683 257.156 111.973 257.08 113.264 257.005L116.753 256.887C119.669 256.668 119.669 256.668 122.284 257.234C124.855 259.452 126.47 261.604 128.341 264.444C130.361 267.578 132.54 270.505 134.852 273.429C135.4 274.118 135.932 274.787 136.464 275.455C141.444 281.8 146.529 288.051 151.673 294.264C156.116 299.629 160.531 305.007 164.82 310.497C170.131 317.321 175.545 324.045 181.061 330.706C185.505 336.071 189.919 341.449 194.208 346.939C199.52 353.763 204.933 360.488 210.45 367.148C215.43 373.161 220.35 379.208 225.145 385.369C230.096 391.739 235.197 397.973 240.353 404.178C242.957 407.287 245.576 410.382 248.068 413.582C250.46 417.476 250.46 417.476 252.77 420.636C257.478 423.608 261.298 424.571 266.859 424.623L269.557 424.594C271.094 424.6 272.63 424.605 274.166 424.606L278.777 424.598C281.027 424.587 283.278 424.581 285.529 424.582C288.596 424.588 291.663 424.59 294.729 424.588L303.93 424.571C310.453 424.55 316.976 424.542 323.499 424.541C328.96 424.54 334.421 424.537 339.881 424.531L356.263 424.503C363.327 424.486 370.391 424.472 377.455 424.462L398.648 424.442C410.885 424.438 423.122 424.426 435.359 424.41L447.094 424.398C453.355 424.392 459.616 424.384 465.877 424.369C468.183 424.362 470.489 424.357 472.795 424.352L482.438 424.338C483.427 424.334 484.387 424.331 485.347 424.327C491.851 424.335 497.662 424.399 503.547 421.578L504.117 421.297C506.939 417.991 507.292 417.578 507.344 412.083L507.354 409.394C506.294 404.829 506.293 404.828 494.886 396.517C487.654 391.288 480.481 385.988 473.376 380.59L470.335 378.271C462.839 372.52 455.318 366.825 447.67 361.284L444.385 358.919C437.734 354.163 431.168 349.312 424.67 344.349C416.369 337.991 408.064 331.641 399.669 325.408L396.701 323.212C395.743 322.498 394.812 321.806 393.882 321.113L391.26 319.18C388.931 317.458 386.721 315.979 384.151 314.637C383.447 314.305 382.764 313.983 382.08 313.661C387.995 305.894 394.142 298.47 400.754 291.311L402.083 289.883C407.615 283.98 413.111 278.115 418.237 271.862L419.257 270.606C422.398 266.688 425.613 262.894 429.02 259.203C434.791 252.992 440.379 246.652 445.895 240.222L448.256 237.461C452.934 231.962 457.651 226.509 462.541 221.196C468.816 214.403 474.932 207.502 480.955 200.493L483.531 197.483C487.798 192.469 492.084 187.492 496.536 182.648L498.455 180.58C503.995 174.671 509.498 168.798 514.63 162.537L515.652 161.28C518.793 157.361 522.008 153.566 525.417 149.877L528.646 146.377C530.336 144.533 532.028 142.69 533.726 140.855C535.22 139.28 536.71 137.705 538.186 136.116L539.657 134.521C540.313 133.802 540.951 133.104 541.588 132.406C545.692 128.176 548.061 125.275 548.282 119.404L548.297 118.827C548.097 114.77 547.792 111.587 544.938 108.616L544.653 108.329C539.605 105.401 539.605 105.401 500.841 108.572L484.979 109.857C466.429 111.37 447.89 112.988 429.361 114.744C428.473 114.828 427.612 114.91 426.751 114.993C427.735 113.026 427.98 112.534 428.769 110.023L429.789 106.709C430.045 105.861 430.293 105.037 430.542 104.214L433.058 95.9164L433.956 92.942C435.506 87.8054 437.055 82.6674 438.599 77.5289C439.894 73.2157 441.192 68.903 442.5 64.5933C443.3 61.9607 444.099 59.3275 444.897 56.6939L447.281 48.7911C447.883 46.7806 448.487 44.7706 449.091 42.7607C449.531 41.3234 449.969 39.8856 450.406 38.4477L451.708 34.1312C451.977 33.2242 452.239 32.3436 452.501 31.4632C454.372 25.433 455.198 20.136 455.014 13.9655L454.964 12.7199C453.882 10.0902 453.746 9.76126 450.62 7.00861L449.087 5.6666ZM178.71 193.755C181.081 193.54 181.081 193.54 182.808 194.896C183.511 195.447 184.195 195.983 184.877 196.519L187.236 198.35C194.489 204.045 201.809 209.642 209.24 215.102C216.917 220.725 224.575 226.372 232.183 232.088C245.381 242.016 258.654 251.838 271.976 261.599C281.658 268.692 291.306 275.821 300.839 283.115C309.423 289.69 318.033 296.203 326.83 302.493C333.503 307.263 340.083 312.134 346.598 317.118C355.211 323.725 363.845 330.271 372.676 336.584C380.528 342.195 388.234 347.977 395.893 353.85C401.962 358.504 408.022 363.156 414.267 367.573C420.952 372.27 427.526 377.09 434.046 382.015L437.405 384.561L440.631 386.992L443.691 389.323C447.785 392.431 451.35 395.823 454.964 399.476C431.73 399.502 408.494 399.522 385.259 399.534C373.967 399.54 362.676 399.546 351.384 399.559L321.62 399.585C316.385 399.586 311.149 399.588 305.914 399.595L290.869 399.609C289.027 399.608 287.185 399.608 285.343 399.609C282.764 399.615 280.184 399.621 277.605 399.619C276.435 399.618 276.435 399.618 275.289 399.617C272.876 399.619 270.462 399.589 268.052 399.476C266.904 398.442 266.76 398.313 266.21 396.989L265.945 396.343L264.827 393.762C264.393 392.763 263.97 391.792 263.548 390.822L262.156 387.596L257.616 377.122C256.537 374.627 255.456 372.133 254.375 369.639L235.724 326.592C230.379 314.249 225.024 301.91 219.662 289.574L216.622 282.582C211.171 270.038 205.719 257.494 200.232 244.966L192.228 226.691C187.443 215.805 182.849 204.906 178.71 193.755ZM188.14 205.022C190.822 211.638 193.636 218.211 196.532 224.799C197.825 227.74 199.113 230.682 200.399 233.622C201.779 236.775 203.159 239.928 204.539 243.079C210.03 255.615 215.483 268.165 220.934 280.707L223.974 287.7C229.336 300.036 234.693 312.377 240.039 324.721L244.471 334.949C246.512 339.658 248.551 344.368 250.59 349.077L258.689 367.769C259.771 370.264 260.851 372.759 261.931 375.255L266.469 385.724L266.472 385.732C266.931 386.793 267.394 387.865 267.866 388.959L269.139 391.886L269.142 391.893L270.26 394.474L270.28 394.521L270.3 394.569C270.343 394.674 270.384 394.769 270.419 394.855C272.024 394.899 273.644 394.916 275.286 394.915H275.295C275.868 394.915 276.155 394.915 276.444 394.916C276.733 394.916 277.026 394.915 277.609 394.916C280.179 394.918 282.751 394.913 285.332 394.907H290.869C295.88 394.907 300.891 394.901 305.906 394.893C311.145 394.885 316.385 394.884 321.619 394.882L385.257 394.832C404.51 394.822 423.764 394.805 443.017 394.785C442.307 394.201 441.586 393.628 440.848 393.068L440.842 393.064L437.781 390.734C436.723 389.936 435.664 389.138 434.574 388.316L434.563 388.308L431.204 385.762C424.723 380.866 418.194 376.08 411.563 371.421L411.552 371.412C406.802 368.053 402.165 364.564 397.589 361.071L393.031 357.581C386.351 352.458 379.651 347.418 372.859 342.506L369.941 340.409C361.043 334.049 352.358 327.463 343.736 320.849C337.262 315.896 330.724 311.057 324.095 306.318L324.094 306.317C315.234 299.981 306.575 293.432 297.979 286.848C288.487 279.585 278.871 272.479 269.198 265.392C255.865 255.623 242.575 245.789 229.358 235.848C221.771 230.148 214.131 224.513 206.461 218.895L206.456 218.891C200.278 214.351 194.181 209.72 188.14 205.022ZM135.092 170.337C139.505 168.911 142.373 168.34 144.929 172.886C145.439 174.101 145.934 175.282 146.429 176.461C147.021 177.852 147.596 179.202 148.17 180.551C149.125 182.846 150.079 185.14 151.048 187.428C152.099 189.896 153.149 192.365 154.198 194.834C158.047 203.936 161.97 213.004 165.926 222.06C168.034 226.881 170.14 231.703 172.244 236.527C172.681 237.53 173.106 238.503 173.531 239.477C176.125 245.424 178.718 251.372 181.305 257.323C183.022 261.275 184.739 265.227 186.458 269.179C187.304 271.124 188.151 273.069 188.996 275.014C193.352 285.045 197.703 295.076 202.241 305.026C202.63 305.879 203.009 306.707 203.388 307.535C205.143 311.389 206.89 315.246 208.679 319.085L209.664 321.196C210.566 323.169 210.566 323.17 211.451 325.104L212.133 326.548C213.595 329.629 214.111 330.893 212.801 334.82C205.385 325.5 197.891 316.241 190.362 307.011L182.825 297.791C178.175 292.097 175.85 289.249 173.529 286.399L164.259 274.988C154.382 262.822 144.536 250.627 134.549 238.551C128.255 230.947 121.968 223.346 115.855 215.599L113.247 212.269C108.929 206.706 104.468 201.297 99.875 195.959C96.6472 192.266 93.8227 188.814 91.7197 184.35C97.3703 182.511 103.023 180.679 108.68 178.86L115.598 176.636C118.998 175.528 122.398 174.421 125.803 173.328L129.03 172.296C130.097 171.946 131.132 171.604 132.168 171.264L135.092 170.337ZM139.965 174.016C139.88 174.006 139.614 173.995 139.04 174.108C138.404 174.233 137.624 174.46 136.537 174.811L136.526 174.815L136.515 174.819C135.552 175.125 134.582 175.433 133.591 175.747C132.568 176.083 131.551 176.417 130.497 176.763L130.462 176.774C128.865 177.286 128.867 177.284 127.238 177.805L127.239 177.807C123.845 178.895 120.455 179.998 117.054 181.106L117.039 181.11C114.732 181.853 112.425 182.597 110.117 183.338L110.116 183.336C106.313 184.559 102.511 185.791 98.7098 187.024C99.756 188.518 100.935 189.978 102.254 191.522L103.415 192.864L103.438 192.891C108.074 198.278 112.585 203.748 116.958 209.382L119.548 212.688C123.885 218.184 128.314 223.611 132.787 229.037L138.171 235.552L138.173 235.553C148.178 247.651 158.044 259.871 167.91 272.024L177.175 283.43C179.494 286.278 181.817 289.122 186.462 294.81C190.971 300.316 195.474 305.831 199.963 311.361C199.679 310.736 199.394 310.112 199.11 309.489L197.965 306.98L197.962 306.977C193.404 296.981 189.035 286.911 184.683 276.888C183.838 274.943 182.992 273 182.146 271.055C180.427 267.103 178.709 263.15 176.992 259.197C174.406 253.249 171.814 247.304 169.22 241.357C168.795 240.384 168.37 239.409 167.933 238.406C165.83 233.584 163.725 228.763 161.618 223.943C157.657 214.878 153.725 205.79 149.867 196.665C148.819 194.2 147.77 191.734 146.721 189.269L146.718 189.261C145.748 186.97 144.792 184.675 143.843 182.394L142.102 178.302L142.097 178.291L142.091 178.28C141.635 177.191 141.179 176.102 140.71 174.986C140.329 174.347 140.069 174.099 139.979 174.026C139.974 174.022 139.969 174.019 139.965 174.016ZM427.927 40.9331C423.471 56.5379 418.577 71.9966 413.642 87.4557L405.844 111.937C405.567 112.807 405.3 113.652 405.031 114.497L400.816 127.801C396.613 141.11 392.446 154.429 388.294 167.755C375.812 207.823 363.108 247.82 350.341 287.798C339.652 283.264 338.315 282.697 331.069 276.181L327.557 272.995C319.586 266.855 311.574 260.776 303.484 254.795L300.012 252.238C295.52 248.943 291.033 245.642 286.565 242.315L282.104 238.979C277.196 235.284 272.279 231.605 267.34 227.952L262.395 224.31C255.48 219.237 248.597 214.129 241.766 208.946L238.842 206.72C230.878 200.625 222.907 194.543 214.835 188.59L212.067 186.554C207.385 183.111 202.698 179.674 197.999 176.254L194.892 173.995C192.878 172.524 190.864 171.053 188.849 169.582C183.087 165.417 177.696 161.34 172.833 156.137C180.262 152.324 187.778 148.775 195.409 145.385C207.94 139.837 220.413 134.173 232.853 128.43L238.183 125.964C252.223 119.453 266.294 113.027 280.431 106.734L286.494 104.045C296.111 99.7976 305.71 95.5249 315.254 91.1189L319.341 89.2224C332.916 82.8647 346.549 76.6735 360.259 70.6157C370.624 66.0395 380.977 61.443 391.269 56.7054C392.321 56.22 393.343 55.7496 394.364 55.2785C399.322 52.9913 404.279 50.7015 409.229 48.3974C411.07 47.5405 412.911 46.685 414.752 45.8316L417.319 44.6434C420.773 43.0238 424.054 40.9331 427.927 40.9331ZM420.94 48.1127C420.458 48.3527 419.929 48.6125 419.316 48.9002L419.305 48.9048L419.296 48.9094C418.454 49.2994 417.597 49.6968 416.729 50.0987C414.89 50.9508 413.052 51.8042 411.214 52.6599C406.256 54.9678 401.291 57.2594 396.333 59.5467C395.305 60.0207 394.297 60.4877 393.239 60.976L393.235 60.9771C382.908 65.7312 372.525 70.3399 362.158 74.9173L362.157 74.9161C348.476 80.9607 334.876 87.1385 321.335 93.4804L321.33 93.4838C310.395 98.5869 299.39 103.489 288.393 108.346C272.248 115.478 256.189 122.797 240.163 130.23C225.938 136.827 211.666 143.328 197.317 149.682C191.762 152.15 186.278 154.699 180.851 157.37C184.157 160.299 187.727 162.968 191.603 165.771L191.622 165.785C193.634 167.254 195.645 168.723 197.657 170.192C198.682 170.938 199.708 171.684 200.764 172.452C205.472 175.878 210.166 179.32 214.852 182.766L217.621 184.801L217.626 184.806C225.734 190.786 233.733 196.89 241.696 202.983C249.452 208.908 257.288 214.732 265.175 220.518C271.799 225.378 278.379 230.288 284.932 235.221C290.846 239.667 296.806 244.055 302.793 248.446C310.938 254.423 318.997 260.498 327.001 266.635L330.427 269.27L330.58 269.388L330.724 269.518C336.123 274.434 338.441 276.526 340.893 278.119C342.588 279.22 344.377 280.099 347.433 281.435C359.669 243.104 371.841 204.762 383.805 166.356C389.341 148.585 394.908 130.819 400.549 113.072L401.363 110.513C403.958 102.35 406.557 94.1865 409.163 86.0253L412.847 74.4397C415.618 65.6712 418.338 56.9071 420.94 48.1127ZM509.04 132.626C508.087 136.186 508.087 136.186 505.807 138.655L503.162 141.516L500.269 144.671C498.343 146.759 496.426 148.856 494.52 150.962L491.847 153.933L488.241 157.951C487.043 159.294 485.85 160.641 484.665 161.996C480.52 166.774 476.294 171.468 472.01 176.121L469.318 179.053C466.632 181.99 463.967 184.944 461.357 187.95C459.095 190.559 456.809 193.138 454.491 195.697C450.787 199.758 447.062 203.8 443.434 207.93L440.75 211.005C438.057 214.072 435.334 217.108 432.57 220.115C428.407 224.637 424.244 229.155 420.212 233.797C416.961 237.547 413.638 241.224 410.294 244.891L406.328 249.249C405.012 250.706 403.705 252.172 402.414 253.652L395.779 261.089C390.53 266.949 388.37 269.238 379.729 278.394C378.518 275.236 378.582 273.559 379.305 270.203L380.616 265.964C381.409 263.353 382.205 260.743 383.016 258.138C383.643 256.127 384.267 254.115 384.888 252.103L386.747 246.065C387.102 244.909 387.448 243.786 387.793 242.664C390.054 235.331 392.255 227.983 394.412 220.62L396.554 213.253C398.523 206.43 400.506 199.61 402.502 192.795C403.586 189.097 404.673 185.401 405.743 181.699L406.808 177.996C408.175 173.187 409.55 168.381 410.966 163.586L412.557 158.203C413.268 155.651 413.978 153.101 414.737 150.563L415.438 148.252C416.454 144.107 416.455 144.108 418.522 140.855C422.622 139.142 426.316 138.559 430.707 137.997L434.86 137.697C437.273 137.514 439.686 137.335 442.1 137.166L447.257 136.798C449.519 136.63 451.781 136.465 454.043 136.301L472.048 135.008C479.939 134.429 487.831 133.852 495.723 133.291L498.013 133.128C501.707 132.864 505.337 132.626 509.04 132.626ZM498.347 137.818H498.345C497.591 137.872 496.833 137.924 496.056 137.979L496.057 137.98C488.17 138.541 480.284 139.119 472.392 139.698C468.649 139.972 464.904 140.24 461.16 140.505C456.642 140.824 452.123 141.153 447.603 141.487H447.6C445.876 141.613 444.151 141.736 442.426 141.856L442.427 141.857C440.027 142.025 437.624 142.204 435.213 142.386L435.198 142.387C433.875 142.483 432.552 142.577 431.192 142.675C427.478 143.152 424.624 143.614 421.675 144.673C421.225 145.399 421.06 145.706 420.925 146.029C420.713 146.538 420.549 147.153 420.004 149.373L419.975 149.495L419.938 149.616C419.708 150.374 419.477 151.131 419.241 151.911L419.242 151.912C418.498 154.399 417.8 156.905 417.087 159.465L417.078 159.496L417.069 159.528C416.54 161.329 416.008 163.129 415.473 164.927C414.065 169.695 412.696 174.479 411.331 179.282L411.329 179.287C409.912 184.247 408.459 189.193 407.015 194.118L407.014 194.117C405.02 200.927 403.039 207.74 401.073 214.556C398.23 224.408 395.31 234.237 392.286 244.044L392.287 244.045C391.948 245.15 391.592 246.308 391.243 247.446C390.005 251.471 388.762 255.504 387.505 259.534C386.933 261.371 386.369 263.214 385.806 265.06C389.456 261.128 392.09 258.174 398.902 250.525C401.516 247.529 404.191 244.602 406.82 241.721L409.313 238.98C411.797 236.238 414.251 233.495 416.659 230.717L416.662 230.713C420.745 226.012 424.955 221.444 429.108 216.933C432.758 212.961 436.34 208.935 439.881 204.85L439.891 204.837L439.902 204.826C443.567 200.653 447.335 196.564 451.018 192.527C453.309 189.998 455.568 187.449 457.803 184.87L457.806 184.867C461.334 180.804 464.95 176.845 468.55 172.936C472.811 168.307 477.005 163.648 481.114 158.914L481.119 158.908L481.125 158.901C483.518 156.163 485.941 153.463 488.351 150.787L491.023 147.816L491.033 147.806C492.95 145.688 494.877 143.581 496.811 141.483C497.763 140.445 498.715 139.407 499.696 138.337L499.702 138.33L499.709 138.323C499.906 138.11 500.103 137.896 500.3 137.683C499.655 137.726 499.005 137.772 498.347 137.818ZM72.9109 194.93C74.2674 196.515 75.6101 198.114 76.8806 199.769C81.9796 206.534 87.2448 213.155 92.6323 219.692C93.3961 220.616 94.1376 221.512 94.8789 222.409C96.9156 224.873 98.9529 227.337 100.993 229.798C101.437 230.333 101.869 230.853 102.3 231.372C100.202 233.921 100.201 233.92 97.5021 234.147C96.4643 234.21 95.4569 234.271 94.4496 234.332C93.2733 234.408 92.1312 234.482 90.9895 234.557C89.7155 234.627 88.479 234.697 87.2425 234.766C84.6413 234.925 82.0397 235.084 79.4384 235.241L73.2656 235.593C71.208 235.713 69.15 235.834 67.0928 235.961C64.4124 236.127 61.7319 236.29 59.0511 236.45L55.2087 236.676C53.3197 236.792 53.319 236.792 51.4674 236.905L47.997 237.096C44.3159 237.308 42.3751 237.259 38.8199 236.074C40.6162 233.717 42.4129 231.36 44.2121 229.005L54.1021 216.09C56.3807 213.096 58.6588 210.102 60.9476 207.116L63.1391 204.261C63.8653 203.303 64.5695 202.372 65.2744 201.441L67.2673 198.856C68.9194 196.61 68.9194 196.61 70.5598 194.93H72.9109ZM71.0545 201.642L71.0236 201.684L70.9914 201.726C70.0056 203.006 70.0055 203.006 68.9996 204.311C68.3024 205.232 67.6045 206.152 66.8862 207.1L66.8781 207.111L66.8689 207.123C65.7851 208.536 65.7835 208.536 64.6786 209.976L64.6797 209.977C62.3967 212.955 60.1227 215.942 57.8434 218.937L57.8354 218.948L53.3467 224.806C51.4049 227.339 49.4653 229.874 47.5275 232.411C47.5928 232.407 47.6591 232.406 47.7261 232.402H47.7387L51.2091 232.21C53.0314 232.098 53.0414 232.097 54.9206 231.982H54.9332L58.7756 231.756C61.4508 231.596 64.126 231.434 66.8012 231.268H66.8047C70.9318 231.014 75.0573 230.778 79.172 230.546C81.7662 230.389 84.3604 230.231 86.9543 230.071H86.9681L86.9819 230.07C88.2044 230.002 89.4266 229.935 90.6853 229.865L94.1442 229.64L94.1546 229.639H94.1649C94.3529 229.627 94.5414 229.616 94.7297 229.604C93.5708 228.204 92.411 226.804 91.2536 225.404C90.513 224.508 89.7722 223.612 89.0092 222.69L89.0035 222.683C83.5906 216.115 78.2914 209.451 73.1519 202.633L72.2416 201.472C72.0589 201.244 71.8721 201.018 71.6859 200.789C71.5147 201.021 71.3074 201.299 71.0545 201.642Z" fill="url(#paint3_linear_1086_136)"/>
<defs>
<linearGradient id="paint0_linear_1086_136" x1="298.99" y1="178.141" x2="298.99" y2="428.75" gradientUnits="userSpaceOnUse">
<stop stop-color="#191919" stop-opacity="0.5"/>
<stop offset="1" stop-color="#121212" stop-opacity="0"/>
</linearGradient>
<linearGradient id="paint1_linear_1086_136" x1="311.139" y1="176.862" x2="311.139" y2="427.472" gradientUnits="userSpaceOnUse">
<stop stop-color="#131313"/>
<stop offset="1" stop-color="#292929" stop-opacity="0"/>
</linearGradient>
<linearGradient id="paint2_linear_1086_136" x1="377.605" y1="55.3902" x2="277.435" y2="424.877" gradientUnits="userSpaceOnUse">
<stop stop-color="#1E1E1E"/>
<stop offset="0.350962" stop-color="#373737"/>
<stop offset="0.543269" stop-color="#1E1E1E"/>
<stop offset="0.745192" stop-color="#373737"/>
<stop offset="1" stop-color="#1E1E1E"/>
</linearGradient>
<linearGradient id="paint3_linear_1086_136" x1="379.355" y1="51.8223" x2="276.5" y2="429.325" gradientUnits="userSpaceOnUse">
<stop stop-color="#1E1E1E"/>
<stop offset="0.350962" stop-color="#373737"/>
<stop offset="0.543269" stop-color="#1E1E1E"/>
<stop offset="0.745192" stop-color="#373737"/>
<stop offset="1" stop-color="#1E1E1E"/>
</linearGradient>
</defs>
</svg>
